<?xml version="1.0" encoding="UTF-8"?>
<svg id="Layer_2" data-name="Layer 2" xmlns="http://www.w3.org/2000/svg" viewBox="0 0 113.78 78.25">
  <defs>
    <style>
      .cls-1 {
        fill: #c1b9b4;
      }

      .cls-2 {
        fill: #6ba1cd;
      }

      .cls-3 {
        fill: #efe1d5;
      }

      .cls-4 {
        fill: #292828;
      }

      .cls-5 {
        fill: #d8ccc3;
      }
    </style>
  </defs>
  <g id="COPYABLE_GRIDS_copy_16" data-name="COPYABLE GRIDS copy 16">
    <g>
      <rect class="cls-2" x="18.96" y="52.17" width="9.48" height="8.69"/>
      <rect class="cls-2" x="18.96" y="43.48" width="9.48" height="8.69"/>
      <rect class="cls-2" x="18.96" y="34.78" width="9.48" height="8.69"/>
      <rect class="cls-2" x="18.96" y="26.09" width="9.48" height="8.69"/>
      <rect class="cls-2" x="18.96" y="17.39" width="9.48" height="8.69"/>
      <rect class="cls-2" x="28.44" y="17.39" width="9.48" height="8.69"/>
      <rect class="cls-2" x="37.93" y="17.39" width="9.48" height="8.69"/>
      <rect class="cls-2" x="47.41" y="17.39" width="9.48" height="8.69"/>
      <rect class="cls-2" x="56.89" y="17.39" width="9.48" height="8.69"/>
      <rect class="cls-2" x="66.37" y="17.39" width="9.48" height="8.69"/>
      <rect class="cls-2" x="75.86" y="17.39" width="9.48" height="8.69"/>
      <rect class="cls-2" x="85.34" y="43.48" width="9.48" height="8.69"/>
      <rect class="cls-2" x="85.34" y="17.39" width="9.48" height="8.69"/>
      <rect class="cls-2" x="85.34" y="26.09" width="9.48" height="8.69"/>
      <rect class="cls-2" x="85.34" y="34.78" width="9.48" height="8.69"/>
      <rect class="cls-2" x="85.34" y="52.17" width="9.48" height="8.69"/>
      <rect class="cls-4" y="69.56" width="9.48" height="8.69"/>
      <rect class="cls-4" y="60.87" width="9.48" height="8.69"/>
      <rect class="cls-4" y="52.17" width="9.48" height="8.69"/>
      <rect class="cls-4" y="43.48" width="9.48" height="8.69"/>
      <rect class="cls-4" y="34.78" width="9.48" height="8.69"/>
      <rect class="cls-4" y="26.09" width="9.48" height="8.69"/>
      <rect class="cls-4" y="17.39" width="9.48" height="8.69"/>
      <rect class="cls-4" y="8.7" width="9.48" height="8.69"/>
      <rect class="cls-4" width="9.48" height="8.69"/>
      <rect class="cls-4" x="9.48" y="69.56" width="9.48" height="8.69"/>
      <rect class="cls-5" x="9.48" y="60.87" width="9.48" height="8.69"/>
      <rect class="cls-5" x="9.48" y="52.17" width="9.48" height="8.69"/>
      <rect class="cls-5" x="9.48" y="43.48" width="9.48" height="8.69"/>
      <rect class="cls-5" x="9.48" y="34.78" width="9.48" height="8.69"/>
      <rect class="cls-5" x="9.48" y="26.09" width="9.48" height="8.69"/>
      <rect class="cls-5" x="9.48" y="17.39" width="9.48" height="8.69"/>
      <rect class="cls-5" x="9.48" y="8.7" width="9.48" height="8.69"/>
      <rect class="cls-4" x="9.48" width="9.48" height="8.69"/>
      <rect class="cls-4" x="18.96" y="69.56" width="9.48" height="8.69"/>
      <rect class="cls-5" x="18.96" y="60.87" width="9.48" height="8.69"/>
      <rect class="cls-5" x="18.96" y="8.7" width="9.48" height="8.69"/>
      <rect class="cls-4" x="18.96" width="9.48" height="8.69"/>
      <rect class="cls-4" x="28.44" y="69.56" width="9.48" height="8.69"/>
      <rect class="cls-5" x="28.44" y="60.87" width="9.48" height="8.69"/>
      <rect class="cls-2" x="28.44" y="52.17" width="9.48" height="8.69"/>
      <rect class="cls-2" x="28.44" y="43.48" width="9.48" height="8.69"/>
      <rect class="cls-2" x="28.44" y="34.78" width="9.48" height="8.69"/>
      <rect class="cls-2" x="28.44" y="26.09" width="9.48" height="8.69"/>
      <rect class="cls-5" x="28.44" y="8.7" width="9.48" height="8.69"/>
      <rect class="cls-4" x="28.44" width="9.48" height="8.69"/>
      <rect class="cls-4" x="37.93" y="69.56" width="9.48" height="8.69"/>
      <rect class="cls-5" x="37.93" y="60.87" width="9.48" height="8.69"/>
      <rect class="cls-1" x="37.93" y="52.17" width="9.48" height="8.69"/>
      <rect class="cls-1" x="37.93" y="43.48" width="9.48" height="8.69"/>
      <rect class="cls-4" x="37.93" y="34.78" width="9.48" height="8.69"/>
      <rect class="cls-1" x="37.93" y="26.09" width="9.48" height="8.69"/>
      <rect class="cls-5" x="37.93" y="8.7" width="9.48" height="8.69"/>
      <rect class="cls-4" x="37.93" width="9.48" height="8.69"/>
      <rect class="cls-4" x="47.41" y="69.56" width="9.48" height="8.69"/>
      <rect class="cls-5" x="47.41" y="60.87" width="9.48" height="8.69"/>
      <rect class="cls-1" x="47.41" y="52.17" width="9.48" height="8.69"/>
      <rect class="cls-4" x="47.41" y="43.48" width="9.48" height="8.69"/>
      <rect class="cls-1" x="47.41" y="34.78" width="9.48" height="8.69"/>
      <rect class="cls-1" x="47.41" y="26.09" width="9.48" height="8.69"/>
      <rect class="cls-5" x="47.41" y="8.7" width="9.48" height="8.69"/>
      <rect class="cls-4" x="47.41" width="9.48" height="8.69"/>
      <rect class="cls-4" x="56.89" y="69.56" width="9.48" height="8.69"/>
      <rect class="cls-5" x="56.89" y="60.87" width="9.48" height="8.69"/>
      <rect class="cls-1" x="56.89" y="52.17" width="9.48" height="8.69"/>
      <rect class="cls-4" x="56.89" y="43.48" width="9.48" height="8.69"/>
      <rect class="cls-1" x="56.89" y="34.78" width="9.48" height="8.69"/>
      <rect class="cls-1" x="56.89" y="26.09" width="9.48" height="8.69"/>
      <rect class="cls-3" x="56.89" y="8.7" width="9.48" height="8.69"/>
      <rect class="cls-4" x="56.89" width="9.48" height="8.69"/>
      <rect class="cls-4" x="66.37" y="69.56" width="9.48" height="8.69"/>
      <rect class="cls-5" x="66.37" y="60.87" width="9.48" height="8.69"/>
      <rect class="cls-1" x="66.37" y="52.17" width="9.48" height="8.69"/>
      <rect class="cls-1" x="66.37" y="43.48" width="9.48" height="8.69"/>
      <rect class="cls-4" x="66.37" y="34.78" width="9.48" height="8.69"/>
      <rect class="cls-1" x="66.37" y="26.09" width="9.48" height="8.69"/>
      <rect class="cls-3" x="66.37" y="8.7" width="9.48" height="8.69"/>
      <rect class="cls-4" x="66.37" width="9.48" height="8.69"/>
      <rect class="cls-4" x="75.86" y="69.56" width="9.48" height="8.69"/>
      <rect class="cls-5" x="75.86" y="60.87" width="9.48" height="8.69"/>
      <rect class="cls-2" x="75.86" y="52.17" width="9.48" height="8.69"/>
      <rect class="cls-2" x="75.86" y="43.48" width="9.48" height="8.69"/>
      <rect class="cls-2" x="75.86" y="34.78" width="9.48" height="8.69"/>
      <rect class="cls-2" x="75.86" y="26.09" width="9.48" height="8.69"/>
      <rect class="cls-3" x="75.86" y="8.7" width="9.48" height="8.69"/>
      <rect class="cls-4" x="75.86" width="9.48" height="8.69"/>
      <rect class="cls-4" x="85.34" y="69.56" width="9.48" height="8.69"/>
      <rect class="cls-5" x="85.34" y="60.87" width="9.48" height="8.69"/>
      <rect class="cls-3" x="85.34" y="8.7" width="9.48" height="8.69"/>
      <rect class="cls-4" x="85.34" width="9.48" height="8.69"/>
      <rect class="cls-4" x="94.82" y="69.56" width="9.48" height="8.69"/>
      <rect class="cls-5" x="94.82" y="60.87" width="9.48" height="8.69"/>
      <rect class="cls-3" x="94.82" y="52.17" width="9.48" height="8.69"/>
      <rect class="cls-3" x="94.82" y="43.48" width="9.48" height="8.69"/>
      <rect class="cls-3" x="94.82" y="34.78" width="9.48" height="8.69"/>
      <rect class="cls-3" x="94.82" y="26.09" width="9.48" height="8.69"/>
      <rect class="cls-3" x="94.82" y="17.39" width="9.48" height="8.69"/>
      <rect class="cls-3" x="94.82" y="8.7" width="9.48" height="8.69"/>
      <rect class="cls-4" x="94.82" width="9.48" height="8.69"/>
      <rect class="cls-4" x="104.3" y="69.56" width="9.48" height="8.69"/>
      <rect class="cls-4" x="104.3" y="60.87" width="9.48" height="8.69"/>
      <rect class="cls-4" x="104.3" y="52.17" width="9.48" height="8.69"/>
      <rect class="cls-4" x="104.3" y="43.48" width="9.48" height="8.69"/>
      <rect class="cls-4" x="104.3" y="34.78" width="9.48" height="8.69"/>
      <rect class="cls-4" x="104.3" y="26.09" width="9.48" height="8.69"/>
      <rect class="cls-4" x="104.3" y="17.39" width="9.48" height="8.69"/>
      <rect class="cls-4" x="104.3" y="8.7" width="9.48" height="8.69"/>
      <rect class="cls-4" x="104.3" width="9.48" height="8.69"/>
    </g>
  </g>
</svg>