<?xml version="1.0" encoding="UTF-8"?>
<svg id="Layer_2" data-name="Layer 2" xmlns="http://www.w3.org/2000/svg" viewBox="0 0 75.86 69.56">
  <defs>
    <style>
      .cls-1 {
        fill: #efe1d5;
      }

      .cls-2 {
        fill: #292828;
      }

      .cls-3 {
        fill: #d8ccc3;
      }
    </style>
  </defs>
  <g id="COPYABLE_GRIDS_copy_15" data-name="COPYABLE GRIDS copy 15">
    <g>
      <rect class="cls-1" x="28.45" y="8.69" width="9.48" height="8.69"/>
      <rect class="cls-3" y="43.47" width="9.48" height="8.7"/>
      <rect class="cls-3" y="34.78" width="9.48" height="8.69"/>
      <rect class="cls-3" y="26.08" width="9.48" height="8.69"/>
      <rect class="cls-3" y="17.39" width="9.48" height="8.69"/>
      <rect class="cls-3" x="9.48" y="52.17" width="9.48" height="8.69"/>
      <rect class="cls-3" x="9.48" y="43.47" width="9.48" height="8.7"/>
      <rect class="cls-3" x="9.48" y="34.78" width="9.48" height="8.69"/>
      <rect class="cls-3" x="9.48" y="26.08" width="9.48" height="8.69"/>
      <rect class="cls-1" x="9.48" y="17.39" width="9.48" height="8.69"/>
      <rect class="cls-1" x="9.48" y="8.69" width="9.48" height="8.69"/>
      <rect class="cls-3" x="18.97" y="60.87" width="9.48" height="8.69"/>
      <rect class="cls-3" x="18.97" y="52.17" width="9.48" height="8.69"/>
      <rect class="cls-3" x="18.97" y="43.47" width="9.48" height="8.7"/>
      <rect class="cls-1" x="18.97" y="34.78" width="9.48" height="8.69"/>
      <rect class="cls-1" x="18.97" y="26.08" width="9.48" height="8.69"/>
      <rect class="cls-1" x="18.97" y="17.39" width="9.48" height="8.69"/>
      <rect class="cls-1" x="18.97" y="8.69" width="9.48" height="8.69"/>
      <rect class="cls-1" x="18.97" width="9.48" height="8.69"/>
      <rect class="cls-3" x="28.45" y="60.87" width="9.48" height="8.69"/>
      <rect class="cls-3" x="28.45" y="52.17" width="9.48" height="8.69"/>
      <rect class="cls-1" x="28.45" y="43.47" width="9.48" height="8.7"/>
      <rect class="cls-2" x="28.45" y="34.78" width="9.48" height="8.69"/>
      <rect class="cls-2" x="28.45" y="26.08" width="9.48" height="8.69"/>
      <rect class="cls-2" x="28.45" y="17.39" width="9.48" height="8.69"/>
      <rect class="cls-1" x="28.45" width="9.48" height="8.69"/>
      <rect class="cls-3" x="37.93" y="60.87" width="9.48" height="8.69"/>
      <rect class="cls-3" x="37.93" y="52.17" width="9.48" height="8.69"/>
      <rect class="cls-1" x="37.93" y="43.47" width="9.48" height="8.7"/>
      <rect class="cls-2" x="37.93" y="34.78" width="9.48" height="8.69"/>
      <rect class="cls-1" x="37.93" y="26.08" width="9.48" height="8.69"/>
      <rect class="cls-1" x="37.93" y="17.39" width="9.48" height="8.69"/>
      <rect class="cls-1" x="37.93" y="8.69" width="9.48" height="8.69"/>
      <rect class="cls-1" x="37.93" width="9.48" height="8.69"/>
      <rect class="cls-3" x="47.41" y="60.87" width="9.48" height="8.69"/>
      <rect class="cls-3" x="47.41" y="52.17" width="9.48" height="8.69"/>
      <rect class="cls-1" x="47.41" y="43.47" width="9.48" height="8.7"/>
      <rect class="cls-2" x="47.41" y="34.78" width="9.48" height="8.69"/>
      <rect class="cls-1" x="47.41" y="26.08" width="9.48" height="8.69"/>
      <rect class="cls-1" x="47.41" y="17.39" width="9.48" height="8.69"/>
      <rect class="cls-1" x="47.41" y="8.69" width="9.48" height="8.69"/>
      <rect class="cls-1" x="47.41" width="9.48" height="8.69"/>
      <rect class="cls-3" x="56.9" y="52.17" width="9.48" height="8.69"/>
      <rect class="cls-1" x="56.9" y="43.47" width="9.48" height="8.7"/>
      <rect class="cls-2" x="56.9" y="34.78" width="9.48" height="8.69"/>
      <rect class="cls-1" x="56.9" y="26.08" width="9.48" height="8.69"/>
      <rect class="cls-1" x="56.9" y="17.39" width="9.48" height="8.69"/>
      <rect class="cls-1" x="56.9" y="8.69" width="9.48" height="8.69"/>
      <rect class="cls-1" x="66.38" y="43.47" width="9.48" height="8.7"/>
      <rect class="cls-1" x="66.38" y="34.78" width="9.48" height="8.69"/>
      <rect class="cls-1" x="66.38" y="26.08" width="9.48" height="8.69"/>
      <rect class="cls-1" x="66.38" y="17.39" width="9.48" height="8.69"/>
    </g>
  </g>
</svg>