<?xml version="1.0" encoding="UTF-8"?>
<svg id="Layer_2" data-name="Layer 2" xmlns="http://www.w3.org/2000/svg" viewBox="0 0 331.88 243.46">
  <defs>
    <style>
      .cls-1 {
        fill: #3a3a3a;
      }

      .cls-2 {
        fill: #b27756;
      }

      .cls-3 {
        fill: #9b6645;
      }

      .cls-4 {
        fill: #292828;
      }

      .cls-5 {
        fill: #c2c2c6;
      }

      .cls-6 {
        fill: #d3915f;
      }

      .cls-7 {
        fill: #bc7c47;
      }
    </style>
  </defs>
  <g id="TV_SHELL_transparent" data-name="TV SHELL transparent">
    <g>
      <rect class="cls-7" y="234.77" width="9.48" height="8.69"/>
      <rect class="cls-7" y="226.08" width="9.48" height="8.69"/>
      <rect class="cls-7" y="217.38" width="9.48" height="8.69"/>
      <rect class="cls-7" y="208.69" width="9.48" height="8.69"/>
      <rect class="cls-7" y="199.99" width="9.48" height="8.69"/>
      <rect class="cls-7" y="191.3" width="9.48" height="8.69"/>
      <rect class="cls-7" y="182.6" width="9.48" height="8.69"/>
      <rect class="cls-7" y="173.91" width="9.48" height="8.69"/>
      <rect class="cls-7" y="165.21" width="9.48" height="8.69"/>
      <rect class="cls-7" y="156.52" width="9.48" height="8.69"/>
      <rect class="cls-7" y="147.82" width="9.48" height="8.69"/>
      <rect class="cls-7" y="139.13" width="9.48" height="8.69"/>
      <rect class="cls-7" y="130.43" width="9.48" height="8.69"/>
      <rect class="cls-7" y="121.74" width="9.48" height="8.69"/>
      <rect class="cls-7" y="113.04" width="9.48" height="8.69"/>
      <rect class="cls-7" y="104.35" width="9.48" height="8.69"/>
      <rect class="cls-7" y="95.65" width="9.48" height="8.69"/>
      <rect class="cls-6" y="86.96" width="9.48" height="8.69"/>
      <rect class="cls-6" y="78.26" width="9.48" height="8.69"/>
      <rect class="cls-6" y="69.57" width="9.48" height="8.69"/>
      <rect class="cls-6" y="60.87" width="9.48" height="8.69"/>
      <rect class="cls-6" y="52.17" width="9.48" height="8.7"/>
      <rect class="cls-6" y="43.48" width="9.48" height="8.69"/>
      <rect class="cls-6" y="34.78" width="9.48" height="8.69"/>
      <rect class="cls-6" y="26.09" width="9.48" height="8.69"/>
      <rect class="cls-6" y="17.39" width="9.48" height="8.69"/>
      <rect class="cls-6" y="8.7" width="9.48" height="8.69"/>
      <rect class="cls-6" width="9.48" height="8.69"/>
      <rect class="cls-3" x="9.48" y="234.77" width="9.48" height="8.69"/>
      <rect class="cls-3" x="9.48" y="226.08" width="9.48" height="8.69"/>
      <rect class="cls-3" x="9.48" y="217.38" width="9.48" height="8.69"/>
      <rect class="cls-3" x="9.48" y="208.69" width="9.48" height="8.69"/>
      <rect class="cls-3" x="9.48" y="199.99" width="9.48" height="8.69"/>
      <rect class="cls-3" x="9.48" y="191.3" width="9.48" height="8.69"/>
      <rect class="cls-3" x="9.48" y="182.6" width="9.48" height="8.69"/>
      <rect class="cls-7" x="9.48" y="173.91" width="9.48" height="8.69"/>
      <rect class="cls-7" x="9.48" y="165.21" width="9.48" height="8.69"/>
      <rect class="cls-7" x="9.48" y="156.52" width="9.48" height="8.69"/>
      <rect class="cls-7" x="9.48" y="147.82" width="9.48" height="8.69"/>
      <rect class="cls-3" x="9.48" y="139.13" width="9.48" height="8.69"/>
      <rect class="cls-3" x="9.48" y="130.43" width="9.48" height="8.69"/>
      <rect class="cls-7" x="9.48" y="121.74" width="9.48" height="8.69"/>
      <rect class="cls-7" x="9.48" y="113.04" width="9.48" height="8.69"/>
      <rect class="cls-7" x="9.48" y="104.35" width="9.48" height="8.69"/>
      <rect class="cls-7" x="9.48" y="95.65" width="9.48" height="8.69"/>
      <rect class="cls-6" x="9.48" y="86.96" width="9.48" height="8.69"/>
      <rect class="cls-6" x="9.48" y="78.26" width="9.48" height="8.69"/>
      <rect class="cls-6" x="9.48" y="69.57" width="9.48" height="8.69"/>
      <rect class="cls-2" x="9.48" y="60.87" width="9.48" height="8.69"/>
      <rect class="cls-2" x="9.48" y="52.17" width="9.48" height="8.7"/>
      <rect class="cls-2" x="9.48" y="43.48" width="9.48" height="8.69"/>
      <rect class="cls-2" x="9.48" y="34.78" width="9.48" height="8.69"/>
      <rect class="cls-2" x="9.48" y="26.09" width="9.48" height="8.69"/>
      <rect class="cls-2" x="9.48" y="17.39" width="9.48" height="8.69"/>
      <rect class="cls-2" x="9.48" y="8.7" width="9.48" height="8.69"/>
      <rect class="cls-2" x="9.48" width="9.48" height="8.69"/>
      <rect class="cls-7" x="18.96" y="234.77" width="9.48" height="8.69"/>
      <rect class="cls-7" x="18.96" y="226.08" width="9.48" height="8.69"/>
      <rect class="cls-7" x="18.96" y="217.38" width="9.48" height="8.69"/>
      <rect class="cls-7" x="18.96" y="208.69" width="9.48" height="8.69"/>
      <rect class="cls-7" x="18.96" y="199.99" width="9.48" height="8.69"/>
      <rect class="cls-7" x="18.96" y="191.3" width="9.48" height="8.69"/>
      <rect class="cls-7" x="18.96" y="182.6" width="9.48" height="8.69"/>
      <rect class="cls-7" x="18.96" y="173.91" width="9.48" height="8.69"/>
      <rect class="cls-7" x="18.96" y="165.21" width="9.48" height="8.69"/>
      <rect class="cls-7" x="18.96" y="156.52" width="9.48" height="8.69"/>
      <rect class="cls-7" x="18.96" y="147.82" width="9.48" height="8.69"/>
      <rect class="cls-7" x="18.96" y="139.13" width="9.48" height="8.69"/>
      <rect class="cls-7" x="18.96" y="130.43" width="9.48" height="8.69"/>
      <rect class="cls-7" x="18.96" y="121.74" width="9.48" height="8.69"/>
      <rect class="cls-7" x="18.96" y="113.04" width="9.48" height="8.69"/>
      <rect class="cls-7" x="18.96" y="104.35" width="9.48" height="8.69"/>
      <rect class="cls-3" x="18.96" y="95.65" width="9.48" height="8.69"/>
      <rect class="cls-3" x="18.96" y="86.96" width="9.48" height="8.69"/>
      <rect class="cls-2" x="18.96" y="78.26" width="9.48" height="8.69"/>
      <rect class="cls-2" x="18.96" y="69.57" width="9.48" height="8.69"/>
      <rect class="cls-2" x="18.96" y="60.87" width="9.48" height="8.69"/>
      <rect class="cls-2" x="18.96" y="52.17" width="9.48" height="8.7"/>
      <rect class="cls-2" x="18.96" y="43.48" width="9.48" height="8.69"/>
      <rect class="cls-2" x="18.96" y="34.78" width="9.48" height="8.69"/>
      <rect class="cls-2" x="18.96" y="26.09" width="9.48" height="8.69"/>
      <rect class="cls-2" x="18.96" y="17.39" width="9.48" height="8.69"/>
      <rect class="cls-2" x="18.96" y="8.7" width="9.48" height="8.69"/>
      <rect class="cls-2" x="18.96" width="9.48" height="8.69"/>
      <rect class="cls-3" x="28.45" y="234.77" width="9.48" height="8.69"/>
      <rect class="cls-3" x="28.45" y="226.08" width="9.48" height="8.69"/>
      <rect class="cls-3" x="28.45" y="217.38" width="9.48" height="8.69"/>
      <rect class="cls-3" x="28.45" y="208.69" width="9.48" height="8.69"/>
      <rect class="cls-3" x="28.45" y="199.99" width="9.48" height="8.69"/>
      <rect class="cls-3" x="28.45" y="191.3" width="9.48" height="8.69"/>
      <rect class="cls-3" x="28.45" y="182.6" width="9.48" height="8.69"/>
      <rect class="cls-3" x="28.45" y="173.91" width="9.48" height="8.69"/>
      <rect class="cls-3" x="28.45" y="165.21" width="9.48" height="8.69"/>
      <rect class="cls-3" x="28.45" y="156.52" width="9.48" height="8.69"/>
      <rect class="cls-3" x="28.45" y="147.82" width="9.48" height="8.69"/>
      <rect class="cls-3" x="28.45" y="139.13" width="9.48" height="8.69"/>
      <rect class="cls-3" x="28.45" y="130.43" width="9.48" height="8.69"/>
      <rect class="cls-3" x="28.45" y="121.74" width="9.48" height="8.69"/>
      <rect class="cls-3" x="28.45" y="113.04" width="9.48" height="8.69"/>
      <rect class="cls-3" x="28.45" y="104.35" width="9.48" height="8.69"/>
      <rect class="cls-7" x="28.45" y="95.65" width="9.48" height="8.69"/>
      <rect class="cls-7" x="28.45" y="86.96" width="9.48" height="8.69"/>
      <rect class="cls-7" x="28.45" y="78.26" width="9.48" height="8.69"/>
      <rect class="cls-6" x="28.45" y="69.57" width="9.48" height="8.69"/>
      <rect class="cls-6" x="28.45" y="60.87" width="9.48" height="8.69"/>
      <rect class="cls-6" x="28.45" y="52.17" width="9.48" height="8.7"/>
      <rect class="cls-6" x="28.45" y="43.48" width="9.48" height="8.69"/>
      <rect class="cls-6" x="28.45" y="34.78" width="9.48" height="8.69"/>
      <rect class="cls-6" x="28.45" y="26.09" width="9.48" height="8.69"/>
      <rect class="cls-6" x="28.45" y="17.39" width="9.48" height="8.69"/>
      <rect class="cls-6" x="28.45" y="8.7" width="9.48" height="8.69"/>
      <rect class="cls-6" x="28.45" width="9.48" height="8.69"/>
      <rect class="cls-3" x="37.93" y="234.77" width="9.48" height="8.69"/>
      <rect class="cls-5" x="37.93" y="226.08" width="9.48" height="8.69"/>
      <rect class="cls-5" x="37.93" y="217.38" width="9.48" height="8.69"/>
      <rect class="cls-5" x="37.93" y="208.69" width="9.48" height="8.69"/>
      <rect class="cls-5" x="37.93" y="199.99" width="9.48" height="8.69"/>
      <rect class="cls-5" x="37.93" y="191.3" width="9.48" height="8.69"/>
      <rect class="cls-3" x="37.93" y="182.6" width="9.48" height="8.69"/>
      <rect class="cls-7" x="37.93" y="173.91" width="9.48" height="8.69"/>
      <rect class="cls-7" x="37.93" y="165.21" width="9.48" height="8.69"/>
      <rect class="cls-7" x="37.93" y="156.52" width="9.48" height="8.69"/>
      <rect class="cls-7" x="37.93" y="147.82" width="9.48" height="8.69"/>
      <rect class="cls-7" x="37.93" y="139.13" width="9.48" height="8.69"/>
      <rect class="cls-7" x="37.93" y="130.43" width="9.48" height="8.69"/>
      <rect class="cls-3" x="37.93" y="121.74" width="9.48" height="8.69"/>
      <rect class="cls-3" x="37.93" y="113.04" width="9.48" height="8.69"/>
      <rect class="cls-3" x="37.93" y="104.35" width="9.48" height="8.69"/>
      <rect class="cls-3" x="37.93" y="95.65" width="9.48" height="8.69"/>
      <rect class="cls-3" x="37.93" y="86.96" width="9.48" height="8.69"/>
      <rect class="cls-3" x="37.93" y="78.26" width="9.48" height="8.69"/>
      <rect class="cls-2" x="37.93" y="69.57" width="9.48" height="8.69"/>
      <rect class="cls-2" x="37.93" y="60.87" width="9.48" height="8.69"/>
      <rect class="cls-2" x="37.93" y="52.17" width="9.48" height="8.7"/>
      <rect class="cls-2" x="37.93" y="43.48" width="9.48" height="8.69"/>
      <rect class="cls-2" x="37.93" y="34.78" width="9.48" height="8.69"/>
      <rect class="cls-2" x="37.93" y="26.09" width="9.48" height="8.69"/>
      <rect class="cls-2" x="37.93" y="17.39" width="9.48" height="8.69"/>
      <rect class="cls-2" x="37.93" y="8.7" width="9.48" height="8.69"/>
      <rect class="cls-2" x="37.93" width="9.48" height="8.69"/>
      <rect class="cls-7" x="47.41" y="234.77" width="9.48" height="8.69"/>
      <rect class="cls-5" x="47.41" y="226.08" width="9.48" height="8.69"/>
      <rect class="cls-3" x="47.41" y="217.38" width="9.48" height="8.69"/>
      <rect class="cls-3" x="47.41" y="208.69" width="9.48" height="8.69"/>
      <rect class="cls-3" x="47.41" y="199.99" width="9.48" height="8.69"/>
      <rect class="cls-5" x="47.41" y="191.3" width="9.48" height="8.69"/>
      <rect class="cls-7" x="47.41" y="182.6" width="9.48" height="8.69"/>
      <rect class="cls-7" x="47.41" y="173.91" width="9.48" height="8.69"/>
      <rect class="cls-4" x="47.41" y="165.21" width="9.48" height="8.69"/>
      <rect class="cls-4" x="47.41" y="156.52" width="9.48" height="8.69"/>
      <rect class="cls-4" x="47.41" y="147.82" width="9.48" height="8.69"/>
      <rect class="cls-4" x="47.41" y="139.13" width="9.48" height="8.69"/>
      <rect class="cls-4" x="47.41" y="130.43" width="9.48" height="8.69"/>
      <rect class="cls-4" x="47.41" y="121.74" width="9.48" height="8.69"/>
      <rect class="cls-4" x="47.41" y="113.04" width="9.48" height="8.69"/>
      <rect class="cls-4" x="47.41" y="104.35" width="9.48" height="8.69"/>
      <rect class="cls-4" x="47.41" y="95.65" width="9.48" height="8.69"/>
      <rect class="cls-4" x="47.41" y="86.96" width="9.48" height="8.69"/>
      <rect class="cls-4" x="47.41" y="78.26" width="9.48" height="8.69"/>
      <rect class="cls-1" x="47.41" y="69.57" width="9.48" height="8.69"/>
      <rect class="cls-1" x="47.41" y="60.87" width="9.48" height="8.69"/>
      <rect class="cls-1" x="47.41" y="52.17" width="9.48" height="8.7"/>
      <rect class="cls-1" x="47.41" y="43.48" width="9.48" height="8.69"/>
      <rect class="cls-1" x="47.41" y="34.78" width="9.48" height="8.69"/>
      <rect class="cls-1" x="47.41" y="26.09" width="9.48" height="8.69"/>
      <rect class="cls-1" x="47.41" y="17.39" width="9.48" height="8.69"/>
      <rect class="cls-6" x="47.41" y="8.7" width="9.48" height="8.69"/>
      <rect class="cls-6" x="47.41" width="9.48" height="8.69"/>
      <rect class="cls-3" x="56.89" y="234.77" width="9.48" height="8.69"/>
      <rect class="cls-5" x="56.89" y="226.08" width="9.48" height="8.69"/>
      <rect class="cls-3" x="56.89" y="217.38" width="9.48" height="8.69"/>
      <rect class="cls-3" x="56.89" y="208.69" width="9.48" height="8.69"/>
      <rect class="cls-7" x="56.89" y="199.99" width="9.48" height="8.69"/>
      <rect class="cls-5" x="56.89" y="191.3" width="9.48" height="8.69"/>
      <rect class="cls-3" x="56.89" y="182.6" width="9.48" height="8.69"/>
      <rect class="cls-3" x="56.89" y="173.91" width="9.48" height="8.69"/>
      <rect class="cls-4" x="56.89" y="165.21" width="9.48" height="8.69"/>
      <rect class="cls-1" x="56.89" y="17.39" width="9.48" height="8.69"/>
      <rect class="cls-2" x="56.89" y="8.7" width="9.48" height="8.69"/>
      <rect class="cls-2" x="56.89" width="9.48" height="8.69"/>
      <rect class="cls-3" x="66.37" y="234.77" width="9.48" height="8.69"/>
      <rect class="cls-5" x="66.37" y="226.08" width="9.48" height="8.69"/>
      <rect class="cls-3" x="66.37" y="217.38" width="9.48" height="8.69"/>
      <rect class="cls-3" x="66.37" y="208.69" width="9.48" height="8.69"/>
      <rect class="cls-3" x="66.37" y="199.99" width="9.48" height="8.69"/>
      <rect class="cls-5" x="66.37" y="191.3" width="9.48" height="8.69"/>
      <rect class="cls-3" x="66.37" y="182.6" width="9.48" height="8.69"/>
      <rect class="cls-3" x="66.37" y="173.91" width="9.48" height="8.69"/>
      <rect class="cls-4" x="66.37" y="165.21" width="9.48" height="8.69"/>
      <rect class="cls-1" x="66.37" y="17.39" width="9.48" height="8.69"/>
      <rect class="cls-6" x="66.37" y="8.7" width="9.48" height="8.69"/>
      <rect class="cls-6" x="66.37" width="9.48" height="8.69"/>
      <rect class="cls-3" x="75.86" y="234.77" width="9.48" height="8.69"/>
      <rect class="cls-5" x="75.86" y="226.08" width="9.48" height="8.69"/>
      <rect class="cls-3" x="75.86" y="217.38" width="9.48" height="8.69"/>
      <rect class="cls-3" x="75.86" y="208.69" width="9.48" height="8.69"/>
      <rect class="cls-3" x="75.86" y="199.99" width="9.48" height="8.69"/>
      <rect class="cls-5" x="75.86" y="191.3" width="9.48" height="8.69"/>
      <rect class="cls-3" x="75.86" y="182.6" width="9.48" height="8.69"/>
      <rect class="cls-3" x="75.86" y="173.91" width="9.48" height="8.69"/>
      <rect class="cls-4" x="75.86" y="165.21" width="9.48" height="8.69"/>
      <rect class="cls-1" x="75.86" y="17.39" width="9.48" height="8.69"/>
      <rect class="cls-6" x="75.86" y="8.7" width="9.48" height="8.69"/>
      <rect class="cls-6" x="75.86" width="9.48" height="8.69"/>
      <rect class="cls-7" x="85.34" y="234.77" width="9.48" height="8.69"/>
      <rect class="cls-5" x="85.34" y="226.08" width="9.48" height="8.69"/>
      <rect class="cls-7" x="85.34" y="217.38" width="9.48" height="8.69"/>
      <rect class="cls-7" x="85.34" y="208.69" width="9.48" height="8.69"/>
      <rect class="cls-3" x="85.34" y="199.99" width="9.48" height="8.69"/>
      <rect class="cls-5" x="85.34" y="191.3" width="9.48" height="8.69"/>
      <rect class="cls-7" x="85.34" y="182.6" width="9.48" height="8.69"/>
      <rect class="cls-7" x="85.34" y="173.91" width="9.48" height="8.69"/>
      <rect class="cls-4" x="85.34" y="165.21" width="9.48" height="8.69"/>
      <rect class="cls-1" x="85.34" y="17.39" width="9.48" height="8.69"/>
      <rect class="cls-2" x="85.34" y="8.7" width="9.48" height="8.69"/>
      <rect class="cls-2" x="85.34" width="9.48" height="8.69"/>
      <rect class="cls-3" x="94.82" y="234.77" width="9.48" height="8.69"/>
      <rect class="cls-5" x="94.82" y="226.08" width="9.48" height="8.69"/>
      <rect class="cls-3" x="94.82" y="217.38" width="9.48" height="8.69"/>
      <rect class="cls-3" x="94.82" y="208.69" width="9.48" height="8.69"/>
      <rect class="cls-3" x="94.82" y="199.99" width="9.48" height="8.69"/>
      <rect class="cls-5" x="94.82" y="191.3" width="9.48" height="8.69"/>
      <rect class="cls-3" x="94.82" y="182.6" width="9.48" height="8.69"/>
      <rect class="cls-3" x="94.82" y="173.91" width="9.48" height="8.69"/>
      <rect class="cls-4" x="94.82" y="165.21" width="9.48" height="8.69"/>
      <rect class="cls-1" x="94.82" y="17.39" width="9.48" height="8.69"/>
      <rect class="cls-6" x="94.82" y="8.7" width="9.48" height="8.69"/>
      <rect class="cls-2" x="94.82" width="9.48" height="8.69"/>
      <rect class="cls-3" x="104.3" y="234.77" width="9.48" height="8.69"/>
      <rect class="cls-5" x="104.3" y="226.08" width="9.48" height="8.69"/>
      <rect class="cls-5" x="104.3" y="217.38" width="9.48" height="8.69"/>
      <rect class="cls-5" x="104.3" y="208.69" width="9.48" height="8.69"/>
      <rect class="cls-5" x="104.3" y="199.99" width="9.48" height="8.69"/>
      <rect class="cls-5" x="104.3" y="191.3" width="9.48" height="8.69"/>
      <rect class="cls-3" x="104.3" y="182.6" width="9.48" height="8.69"/>
      <rect class="cls-3" x="104.3" y="173.91" width="9.48" height="8.69"/>
      <rect class="cls-4" x="104.3" y="165.21" width="9.48" height="8.69"/>
      <rect class="cls-1" x="104.3" y="17.39" width="9.48" height="8.69"/>
      <rect class="cls-2" x="104.3" y="8.7" width="9.48" height="8.69"/>
      <rect class="cls-2" x="104.3" width="9.48" height="8.69"/>
      <rect class="cls-3" x="113.79" y="234.77" width="9.48" height="8.69"/>
      <rect class="cls-5" x="113.79" y="226.08" width="9.48" height="8.69"/>
      <rect class="cls-3" x="113.79" y="217.38" width="9.48" height="8.69"/>
      <rect class="cls-7" x="113.79" y="208.69" width="9.48" height="8.69"/>
      <rect class="cls-7" x="113.79" y="199.99" width="9.48" height="8.69"/>
      <rect class="cls-5" x="113.79" y="191.3" width="9.48" height="8.69"/>
      <rect class="cls-7" x="113.79" y="182.6" width="9.48" height="8.69"/>
      <rect class="cls-7" x="113.79" y="173.91" width="9.48" height="8.69"/>
      <rect class="cls-4" x="113.79" y="165.21" width="9.48" height="8.69"/>
      <rect class="cls-1" x="113.79" y="17.39" width="9.48" height="8.69"/>
      <rect class="cls-6" x="113.79" y="8.7" width="9.48" height="8.69"/>
      <rect class="cls-6" x="113.79" width="9.48" height="8.69"/>
      <rect class="cls-3" x="123.27" y="234.77" width="9.48" height="8.69"/>
      <rect class="cls-5" x="123.27" y="226.08" width="9.48" height="8.69"/>
      <rect class="cls-3" x="123.27" y="217.38" width="9.48" height="8.69"/>
      <rect class="cls-3" x="123.27" y="208.69" width="9.48" height="8.69"/>
      <rect class="cls-3" x="123.27" y="199.99" width="9.48" height="8.69"/>
      <rect class="cls-5" x="123.27" y="191.3" width="9.48" height="8.69"/>
      <rect class="cls-3" x="123.27" y="182.6" width="9.48" height="8.69"/>
      <rect class="cls-3" x="123.27" y="173.91" width="9.48" height="8.69"/>
      <rect class="cls-4" x="123.27" y="165.21" width="9.48" height="8.69"/>
      <rect class="cls-1" x="123.27" y="17.39" width="9.48" height="8.69"/>
      <rect class="cls-2" x="123.27" y="8.7" width="9.48" height="8.69"/>
      <rect class="cls-2" x="123.27" width="9.48" height="8.69"/>
      <rect class="cls-3" x="132.75" y="234.77" width="9.48" height="8.69"/>
      <rect class="cls-5" x="132.75" y="226.08" width="9.48" height="8.69"/>
      <rect class="cls-3" x="132.75" y="217.38" width="9.48" height="8.69"/>
      <rect class="cls-7" x="132.75" y="208.69" width="9.48" height="8.69"/>
      <rect class="cls-7" x="132.75" y="199.99" width="9.48" height="8.69"/>
      <rect class="cls-5" x="132.75" y="191.3" width="9.48" height="8.69"/>
      <rect class="cls-3" x="132.75" y="182.6" width="9.48" height="8.69"/>
      <rect class="cls-3" x="132.75" y="173.91" width="9.48" height="8.69"/>
      <rect class="cls-4" x="132.75" y="165.21" width="9.48" height="8.69"/>
      <rect class="cls-1" x="132.75" y="17.39" width="9.48" height="8.69"/>
      <rect class="cls-2" x="132.75" y="8.7" width="9.48" height="8.69"/>
      <rect class="cls-2" x="132.75" width="9.48" height="8.69"/>
      <rect class="cls-3" x="142.23" y="234.77" width="9.48" height="8.69"/>
      <rect class="cls-5" x="142.23" y="226.08" width="9.48" height="8.69"/>
      <rect class="cls-3" x="142.23" y="217.38" width="9.48" height="8.69"/>
      <rect class="cls-3" x="142.23" y="208.69" width="9.48" height="8.69"/>
      <rect class="cls-3" x="142.23" y="199.99" width="9.48" height="8.69"/>
      <rect class="cls-5" x="142.23" y="191.3" width="9.48" height="8.69"/>
      <rect class="cls-3" x="142.23" y="182.6" width="9.48" height="8.69"/>
      <rect class="cls-7" x="142.23" y="173.91" width="9.48" height="8.69"/>
      <rect class="cls-4" x="142.23" y="165.21" width="9.48" height="8.69"/>
      <rect class="cls-1" x="142.23" y="17.39" width="9.48" height="8.69"/>
      <rect class="cls-6" x="142.23" y="8.7" width="9.48" height="8.69"/>
      <rect class="cls-6" x="142.23" width="9.48" height="8.69"/>
      <rect class="cls-3" x="151.72" y="234.77" width="9.48" height="8.69"/>
      <rect class="cls-5" x="151.72" y="226.08" width="9.48" height="8.69"/>
      <rect class="cls-7" x="151.72" y="217.38" width="9.48" height="8.69"/>
      <rect class="cls-7" x="151.72" y="208.69" width="9.48" height="8.69"/>
      <rect class="cls-7" x="151.72" y="199.99" width="9.48" height="8.69"/>
      <rect class="cls-5" x="151.72" y="191.3" width="9.48" height="8.69"/>
      <rect class="cls-7" x="151.72" y="182.6" width="9.48" height="8.69"/>
      <rect class="cls-3" x="151.72" y="173.91" width="9.48" height="8.69"/>
      <rect class="cls-4" x="151.72" y="165.21" width="9.48" height="8.69"/>
      <rect class="cls-1" x="151.72" y="17.39" width="9.48" height="8.69"/>
      <rect class="cls-2" x="151.72" y="8.7" width="9.48" height="8.69"/>
      <rect class="cls-2" x="151.72" width="9.48" height="8.69"/>
      <rect class="cls-7" x="161.2" y="234.77" width="9.48" height="8.69"/>
      <rect class="cls-5" x="161.2" y="226.08" width="9.48" height="8.69"/>
      <rect class="cls-3" x="161.2" y="217.38" width="9.48" height="8.69"/>
      <rect class="cls-3" x="161.2" y="208.69" width="9.48" height="8.69"/>
      <rect class="cls-3" x="161.2" y="199.99" width="9.48" height="8.69"/>
      <rect class="cls-5" x="161.2" y="191.3" width="9.48" height="8.69"/>
      <rect class="cls-3" x="161.2" y="182.6" width="9.48" height="8.69"/>
      <rect class="cls-3" x="161.2" y="173.91" width="9.48" height="8.69"/>
      <rect class="cls-4" x="161.2" y="165.21" width="9.48" height="8.69"/>
      <rect class="cls-1" x="161.2" y="17.39" width="9.48" height="8.69"/>
      <rect class="cls-2" x="161.2" y="8.7" width="9.48" height="8.69"/>
      <rect class="cls-2" x="161.2" width="9.48" height="8.69"/>
      <rect class="cls-3" x="170.68" y="234.77" width="9.48" height="8.69"/>
      <rect class="cls-5" x="170.68" y="226.08" width="9.48" height="8.69"/>
      <rect class="cls-3" x="170.68" y="217.38" width="9.48" height="8.69"/>
      <rect class="cls-3" x="170.68" y="208.69" width="9.48" height="8.69"/>
      <rect class="cls-3" x="170.68" y="199.99" width="9.48" height="8.69"/>
      <rect class="cls-5" x="170.68" y="191.3" width="9.48" height="8.69"/>
      <rect class="cls-3" x="170.68" y="182.6" width="9.48" height="8.69"/>
      <rect class="cls-3" x="170.68" y="173.91" width="9.48" height="8.69"/>
      <rect class="cls-4" x="170.68" y="165.21" width="9.48" height="8.69"/>
      <rect class="cls-1" x="170.68" y="17.39" width="9.48" height="8.69"/>
      <rect class="cls-2" x="170.68" y="8.7" width="9.48" height="8.69"/>
      <rect class="cls-6" x="170.68" width="9.48" height="8.69"/>
      <rect class="cls-3" x="180.16" y="234.77" width="9.48" height="8.69"/>
      <rect class="cls-5" x="180.16" y="226.08" width="9.48" height="8.69"/>
      <rect class="cls-7" x="180.16" y="217.38" width="9.48" height="8.69"/>
      <rect class="cls-7" x="180.16" y="208.69" width="9.48" height="8.69"/>
      <rect class="cls-7" x="180.16" y="199.99" width="9.48" height="8.69"/>
      <rect class="cls-5" x="180.16" y="191.3" width="9.48" height="8.69"/>
      <rect class="cls-7" x="180.16" y="182.6" width="9.48" height="8.69"/>
      <rect class="cls-7" x="180.16" y="173.91" width="9.48" height="8.69"/>
      <rect class="cls-4" x="180.16" y="165.21" width="9.48" height="8.69"/>
      <rect class="cls-1" x="180.16" y="17.39" width="9.48" height="8.69"/>
      <rect class="cls-6" x="180.16" y="8.7" width="9.48" height="8.69"/>
      <rect class="cls-6" x="180.16" width="9.48" height="8.69"/>
      <rect class="cls-3" x="189.65" y="234.77" width="9.48" height="8.69"/>
      <rect class="cls-5" x="189.65" y="226.08" width="9.48" height="8.69"/>
      <rect class="cls-3" x="189.65" y="217.38" width="9.48" height="8.69"/>
      <rect class="cls-7" x="189.65" y="208.69" width="9.48" height="8.69"/>
      <rect class="cls-7" x="189.65" y="199.99" width="9.48" height="8.69"/>
      <rect class="cls-5" x="189.65" y="191.3" width="9.48" height="8.69"/>
      <rect class="cls-3" x="189.65" y="182.6" width="9.48" height="8.69"/>
      <rect class="cls-3" x="189.65" y="173.91" width="9.48" height="8.69"/>
      <rect class="cls-4" x="189.65" y="165.21" width="9.48" height="8.69"/>
      <rect class="cls-1" x="189.65" y="17.39" width="9.48" height="8.69"/>
      <rect class="cls-6" x="189.65" y="8.7" width="9.48" height="8.69"/>
      <rect class="cls-2" x="189.65" width="9.48" height="8.69"/>
      <rect class="cls-7" x="199.13" y="234.77" width="9.48" height="8.69"/>
      <rect class="cls-5" x="199.13" y="226.08" width="9.48" height="8.69"/>
      <rect class="cls-3" x="199.13" y="217.38" width="9.48" height="8.69"/>
      <rect class="cls-3" x="199.13" y="208.69" width="9.48" height="8.69"/>
      <rect class="cls-3" x="199.13" y="199.99" width="9.48" height="8.69"/>
      <rect class="cls-5" x="199.13" y="191.3" width="9.48" height="8.69"/>
      <rect class="cls-3" x="199.13" y="182.6" width="9.48" height="8.69"/>
      <rect class="cls-3" x="199.13" y="173.91" width="9.48" height="8.69"/>
      <rect class="cls-4" x="199.13" y="165.21" width="9.48" height="8.69"/>
      <rect class="cls-1" x="199.13" y="17.39" width="9.48" height="8.69"/>
      <rect class="cls-6" x="199.13" y="8.7" width="9.48" height="8.69"/>
      <rect class="cls-2" x="199.13" width="9.48" height="8.69"/>
      <rect class="cls-3" x="208.61" y="234.77" width="9.48" height="8.69"/>
      <rect class="cls-5" x="208.61" y="226.08" width="9.48" height="8.69"/>
      <rect class="cls-3" x="208.61" y="217.38" width="9.48" height="8.69"/>
      <rect class="cls-3" x="208.61" y="208.69" width="9.48" height="8.69"/>
      <rect class="cls-3" x="208.61" y="199.99" width="9.48" height="8.69"/>
      <rect class="cls-5" x="208.61" y="191.3" width="9.48" height="8.69"/>
      <rect class="cls-7" x="208.61" y="182.6" width="9.48" height="8.69"/>
      <rect class="cls-7" x="208.61" y="173.91" width="9.48" height="8.69"/>
      <rect class="cls-4" x="208.61" y="165.21" width="9.48" height="8.69"/>
      <rect class="cls-1" x="208.61" y="17.39" width="9.48" height="8.69"/>
      <rect class="cls-2" x="208.61" y="8.7" width="9.48" height="8.69"/>
      <rect class="cls-2" x="208.61" width="9.48" height="8.69"/>
      <rect class="cls-3" x="218.09" y="234.77" width="9.48" height="8.69"/>
      <rect class="cls-5" x="218.09" y="226.08" width="9.48" height="8.69"/>
      <rect class="cls-5" x="218.09" y="217.38" width="9.48" height="8.69"/>
      <rect class="cls-5" x="218.09" y="208.69" width="9.48" height="8.69"/>
      <rect class="cls-5" x="218.09" y="199.99" width="9.48" height="8.69"/>
      <rect class="cls-5" x="218.09" y="191.3" width="9.48" height="8.69"/>
      <rect class="cls-3" x="218.09" y="182.6" width="9.48" height="8.69"/>
      <rect class="cls-3" x="218.09" y="173.91" width="9.48" height="8.69"/>
      <rect class="cls-4" x="218.09" y="165.21" width="9.48" height="8.69"/>
      <rect class="cls-1" x="218.09" y="17.39" width="9.48" height="8.69"/>
      <rect class="cls-2" x="218.09" y="8.7" width="9.48" height="8.69"/>
      <rect class="cls-2" x="218.09" width="9.48" height="8.69"/>
      <rect class="cls-3" x="227.58" y="234.77" width="9.48" height="8.69"/>
      <rect class="cls-5" x="227.58" y="226.08" width="9.48" height="8.69"/>
      <rect class="cls-3" x="227.58" y="217.38" width="9.48" height="8.69"/>
      <rect class="cls-3" x="227.58" y="208.69" width="9.48" height="8.69"/>
      <rect class="cls-3" x="227.58" y="199.99" width="9.48" height="8.69"/>
      <rect class="cls-5" x="227.58" y="191.3" width="9.48" height="8.69"/>
      <rect class="cls-3" x="227.58" y="182.6" width="9.48" height="8.69"/>
      <rect class="cls-3" x="227.58" y="173.91" width="9.48" height="8.69"/>
      <rect class="cls-4" x="227.58" y="165.21" width="9.48" height="8.69"/>
      <rect class="cls-1" x="227.58" y="17.39" width="9.48" height="8.69"/>
      <rect class="cls-2" x="227.58" y="8.7" width="9.48" height="8.69"/>
      <rect class="cls-2" x="227.58" width="9.48" height="8.69"/>
      <rect class="cls-3" x="237.06" y="234.77" width="9.48" height="8.69"/>
      <rect class="cls-5" x="237.06" y="226.08" width="9.48" height="8.69"/>
      <rect class="cls-3" x="237.06" y="217.38" width="9.48" height="8.69"/>
      <rect class="cls-3" x="237.06" y="208.69" width="9.48" height="8.69"/>
      <rect class="cls-3" x="237.06" y="199.99" width="9.48" height="8.69"/>
      <rect class="cls-5" x="237.06" y="191.3" width="9.48" height="8.69"/>
      <rect class="cls-3" x="237.06" y="182.6" width="9.48" height="8.69"/>
      <rect class="cls-3" x="237.06" y="173.91" width="9.48" height="8.69"/>
      <rect class="cls-4" x="237.06" y="165.21" width="9.48" height="8.69"/>
      <rect class="cls-1" x="237.06" y="17.39" width="9.48" height="8.69"/>
      <rect class="cls-6" x="237.06" y="8.7" width="9.48" height="8.69"/>
      <rect class="cls-6" x="237.06" width="9.48" height="8.69"/>
      <rect class="cls-3" x="246.54" y="234.77" width="9.48" height="8.69"/>
      <rect class="cls-5" x="246.54" y="226.08" width="9.48" height="8.69"/>
      <rect class="cls-3" x="246.54" y="217.38" width="9.48" height="8.69"/>
      <rect class="cls-3" x="246.54" y="208.69" width="9.48" height="8.69"/>
      <rect class="cls-3" x="246.54" y="199.99" width="9.48" height="8.69"/>
      <rect class="cls-5" x="246.54" y="191.3" width="9.48" height="8.69"/>
      <rect class="cls-7" x="246.54" y="182.6" width="9.48" height="8.69"/>
      <rect class="cls-7" x="246.54" y="173.91" width="9.48" height="8.69"/>
      <rect class="cls-4" x="246.54" y="165.21" width="9.48" height="8.69"/>
      <rect class="cls-1" x="246.54" y="17.39" width="9.48" height="8.69"/>
      <rect class="cls-2" x="246.54" y="8.7" width="9.48" height="8.69"/>
      <rect class="cls-2" x="246.54" width="9.48" height="8.69"/>
      <rect class="cls-3" x="256.02" y="234.77" width="9.48" height="8.69"/>
      <rect class="cls-5" x="256.02" y="226.08" width="9.48" height="8.69"/>
      <rect class="cls-3" x="256.02" y="217.38" width="9.48" height="8.69"/>
      <rect class="cls-3" x="256.02" y="208.69" width="9.48" height="8.69"/>
      <rect class="cls-3" x="256.02" y="199.99" width="9.48" height="8.69"/>
      <rect class="cls-5" x="256.02" y="191.3" width="9.48" height="8.69"/>
      <rect class="cls-3" x="256.02" y="182.6" width="9.48" height="8.69"/>
      <rect class="cls-3" x="256.02" y="173.91" width="9.48" height="8.69"/>
      <rect class="cls-4" x="256.02" y="165.21" width="9.48" height="8.69"/>
      <rect class="cls-1" x="256.02" y="17.39" width="9.48" height="8.69"/>
      <rect class="cls-2" x="256.02" y="8.7" width="9.48" height="8.69"/>
      <rect class="cls-2" x="256.02" width="9.48" height="8.69"/>
      <rect class="cls-3" x="265.51" y="234.77" width="9.48" height="8.69"/>
      <rect class="cls-5" x="265.51" y="226.08" width="9.48" height="8.69"/>
      <rect class="cls-7" x="265.51" y="217.38" width="9.48" height="8.69"/>
      <rect class="cls-7" x="265.51" y="208.69" width="9.48" height="8.69"/>
      <rect class="cls-7" x="265.51" y="199.99" width="9.48" height="8.69"/>
      <rect class="cls-5" x="265.51" y="191.3" width="9.48" height="8.69"/>
      <rect class="cls-3" x="265.51" y="182.6" width="9.48" height="8.69"/>
      <rect class="cls-3" x="265.51" y="173.91" width="9.48" height="8.69"/>
      <rect class="cls-4" x="265.51" y="165.21" width="9.48" height="8.69"/>
      <rect class="cls-1" x="265.51" y="17.39" width="9.48" height="8.69"/>
      <rect class="cls-6" x="265.51" y="8.7" width="9.48" height="8.69"/>
      <rect class="cls-6" x="265.51" width="9.48" height="8.69"/>
      <rect class="cls-3" x="274.99" y="234.77" width="9.48" height="8.69"/>
      <rect class="cls-5" x="274.99" y="226.08" width="9.48" height="8.69"/>
      <rect class="cls-3" x="274.99" y="217.38" width="9.48" height="8.69"/>
      <rect class="cls-3" x="274.99" y="208.69" width="9.48" height="8.69"/>
      <rect class="cls-3" x="274.99" y="199.99" width="9.48" height="8.69"/>
      <rect class="cls-5" x="274.99" y="191.3" width="9.48" height="8.69"/>
      <rect class="cls-3" x="274.99" y="182.6" width="9.48" height="8.69"/>
      <rect class="cls-3" x="274.99" y="173.91" width="9.48" height="8.69"/>
      <rect class="cls-4" x="274.99" y="165.21" width="9.48" height="8.69"/>
      <rect class="cls-4" x="274.99" y="156.52" width="9.48" height="8.69"/>
      <rect class="cls-4" x="274.99" y="147.82" width="9.48" height="8.69"/>
      <rect class="cls-4" x="274.99" y="139.13" width="9.48" height="8.69"/>
      <rect class="cls-4" x="274.99" y="130.43" width="9.48" height="8.69"/>
      <rect class="cls-4" x="274.99" y="121.74" width="9.48" height="8.69"/>
      <rect class="cls-4" x="274.99" y="113.04" width="9.48" height="8.69"/>
      <rect class="cls-4" x="274.99" y="104.35" width="9.48" height="8.69"/>
      <rect class="cls-4" x="274.99" y="95.65" width="9.48" height="8.69"/>
      <rect class="cls-4" x="274.99" y="86.96" width="9.48" height="8.69"/>
      <rect class="cls-4" x="274.99" y="78.26" width="9.48" height="8.69"/>
      <rect class="cls-4" x="274.99" y="69.57" width="9.48" height="8.69"/>
      <rect class="cls-4" x="274.99" y="60.87" width="9.48" height="8.69"/>
      <rect class="cls-1" x="274.99" y="52.17" width="9.48" height="8.7"/>
      <rect class="cls-1" x="274.99" y="43.48" width="9.48" height="8.69"/>
      <rect class="cls-1" x="274.99" y="34.78" width="9.48" height="8.69"/>
      <rect class="cls-1" x="274.99" y="26.09" width="9.48" height="8.69"/>
      <rect class="cls-1" x="274.99" y="17.39" width="9.48" height="8.69"/>
      <rect class="cls-2" x="274.99" y="8.7" width="9.48" height="8.69"/>
      <rect class="cls-2" x="274.99" width="9.48" height="8.69"/>
      <rect class="cls-3" x="284.47" y="234.77" width="9.48" height="8.69"/>
      <rect class="cls-5" x="284.47" y="226.08" width="9.48" height="8.69"/>
      <rect class="cls-5" x="284.47" y="217.38" width="9.48" height="8.69"/>
      <rect class="cls-5" x="284.47" y="208.69" width="9.48" height="8.69"/>
      <rect class="cls-5" x="284.47" y="199.99" width="9.48" height="8.69"/>
      <rect class="cls-5" x="284.47" y="191.3" width="9.48" height="8.69"/>
      <rect class="cls-3" x="284.47" y="182.6" width="9.48" height="8.69"/>
      <rect class="cls-7" x="284.47" y="173.91" width="9.48" height="8.69"/>
      <rect class="cls-7" x="284.47" y="165.21" width="9.48" height="8.69"/>
      <rect class="cls-7" x="284.47" y="156.52" width="9.48" height="8.69"/>
      <rect class="cls-7" x="284.47" y="147.82" width="9.48" height="8.69"/>
      <rect class="cls-7" x="284.47" y="139.13" width="9.48" height="8.69"/>
      <rect class="cls-7" x="284.47" y="130.43" width="9.48" height="8.69"/>
      <rect class="cls-7" x="284.47" y="121.74" width="9.48" height="8.69"/>
      <rect class="cls-7" x="284.47" y="113.04" width="9.48" height="8.69"/>
      <rect class="cls-7" x="284.47" y="104.35" width="9.48" height="8.69"/>
      <rect class="cls-7" x="284.47" y="95.65" width="9.48" height="8.69"/>
      <rect class="cls-7" x="284.47" y="86.96" width="9.48" height="8.69"/>
      <rect class="cls-7" x="284.47" y="78.26" width="9.48" height="8.69"/>
      <rect class="cls-7" x="284.47" y="69.57" width="9.48" height="8.69"/>
      <rect class="cls-6" x="284.47" y="60.87" width="9.48" height="8.69"/>
      <rect class="cls-6" x="284.47" y="52.17" width="9.48" height="8.7"/>
      <rect class="cls-6" x="284.47" y="43.48" width="9.48" height="8.69"/>
      <rect class="cls-6" x="284.47" y="34.78" width="9.48" height="8.69"/>
      <rect class="cls-2" x="284.47" y="26.09" width="9.48" height="8.69"/>
      <rect class="cls-2" x="284.47" y="17.39" width="9.48" height="8.69"/>
      <rect class="cls-2" x="284.47" y="8.7" width="9.48" height="8.69"/>
      <rect class="cls-2" x="284.47" width="9.48" height="8.69"/>
      <rect class="cls-3" x="293.95" y="234.77" width="9.48" height="8.69"/>
      <rect class="cls-7" x="293.95" y="226.08" width="9.48" height="8.69"/>
      <rect class="cls-7" x="293.95" y="217.38" width="9.48" height="8.69"/>
      <rect class="cls-7" x="293.95" y="208.69" width="9.48" height="8.69"/>
      <rect class="cls-7" x="293.95" y="199.99" width="9.48" height="8.69"/>
      <rect class="cls-3" x="293.95" y="191.3" width="9.48" height="8.69"/>
      <rect class="cls-3" x="293.95" y="182.6" width="9.48" height="8.69"/>
      <rect class="cls-3" x="293.95" y="173.91" width="9.48" height="8.69"/>
      <rect class="cls-3" x="293.95" y="165.21" width="9.48" height="8.69"/>
      <rect class="cls-3" x="293.95" y="156.52" width="9.48" height="8.69"/>
      <rect class="cls-3" x="293.95" y="147.82" width="9.48" height="8.69"/>
      <rect class="cls-3" x="293.95" y="139.13" width="9.48" height="8.69"/>
      <rect class="cls-3" x="293.95" y="130.43" width="9.48" height="8.69"/>
      <rect class="cls-3" x="293.95" y="121.74" width="9.48" height="8.69"/>
      <rect class="cls-7" x="293.95" y="113.04" width="9.48" height="8.69"/>
      <rect class="cls-7" x="293.95" y="104.35" width="9.48" height="8.69"/>
      <rect class="cls-7" x="293.95" y="95.65" width="9.48" height="8.69"/>
      <rect class="cls-7" x="293.95" y="86.96" width="9.48" height="8.69"/>
      <rect class="cls-7" x="293.95" y="78.26" width="9.48" height="8.69"/>
      <rect class="cls-6" x="293.95" y="69.57" width="9.48" height="8.69"/>
      <rect class="cls-2" x="293.95" y="60.87" width="9.48" height="8.69"/>
      <rect class="cls-2" x="293.95" y="52.17" width="9.48" height="8.7"/>
      <rect class="cls-6" x="293.95" y="43.48" width="9.48" height="8.69"/>
      <rect class="cls-6" x="293.95" y="34.78" width="9.48" height="8.69"/>
      <rect class="cls-6" x="293.95" y="26.09" width="9.48" height="8.69"/>
      <rect class="cls-6" x="293.95" y="17.39" width="9.48" height="8.69"/>
      <rect class="cls-6" x="293.95" y="8.7" width="9.48" height="8.69"/>
      <rect class="cls-6" x="293.95" width="9.48" height="8.69"/>
      <rect class="cls-3" x="303.44" y="234.77" width="9.48" height="8.69"/>
      <rect class="cls-3" x="303.44" y="226.08" width="9.48" height="8.69"/>
      <rect class="cls-3" x="303.44" y="217.38" width="9.48" height="8.69"/>
      <rect class="cls-3" x="303.44" y="208.69" width="9.48" height="8.69"/>
      <rect class="cls-3" x="303.44" y="199.99" width="9.48" height="8.69"/>
      <rect class="cls-3" x="303.44" y="191.3" width="9.48" height="8.69"/>
      <rect class="cls-3" x="303.44" y="182.6" width="9.48" height="8.69"/>
      <rect class="cls-3" x="303.44" y="173.91" width="9.48" height="8.69"/>
      <rect class="cls-3" x="303.44" y="165.21" width="9.48" height="8.69"/>
      <rect class="cls-3" x="303.44" y="156.52" width="9.48" height="8.69"/>
      <rect class="cls-3" x="303.44" y="147.82" width="9.48" height="8.69"/>
      <rect class="cls-3" x="303.44" y="139.13" width="9.48" height="8.69"/>
      <rect class="cls-3" x="303.44" y="130.43" width="9.48" height="8.69"/>
      <rect class="cls-3" x="303.44" y="121.74" width="9.48" height="8.69"/>
      <rect class="cls-3" x="303.44" y="113.04" width="9.48" height="8.69"/>
      <rect class="cls-3" x="303.44" y="104.35" width="9.48" height="8.69"/>
      <rect class="cls-3" x="303.44" y="95.65" width="9.48" height="8.69"/>
      <rect class="cls-3" x="303.44" y="86.96" width="9.48" height="8.69"/>
      <rect class="cls-6" x="303.44" y="78.26" width="9.48" height="8.69"/>
      <rect class="cls-6" x="303.44" y="69.57" width="9.48" height="8.69"/>
      <rect class="cls-6" x="303.44" y="60.87" width="9.48" height="8.69"/>
      <rect class="cls-6" x="303.44" y="52.17" width="9.48" height="8.7"/>
      <rect class="cls-6" x="303.44" y="43.48" width="9.48" height="8.69"/>
      <rect class="cls-6" x="303.44" y="34.78" width="9.48" height="8.69"/>
      <rect class="cls-2" x="303.44" y="26.09" width="9.48" height="8.69"/>
      <rect class="cls-2" x="303.44" y="17.39" width="9.48" height="8.69"/>
      <rect class="cls-2" x="303.44" y="8.7" width="9.48" height="8.69"/>
      <rect class="cls-2" x="303.44" width="9.48" height="8.69"/>
      <rect class="cls-7" x="312.92" y="234.77" width="9.48" height="8.69"/>
      <rect class="cls-7" x="312.92" y="226.08" width="9.48" height="8.69"/>
      <rect class="cls-7" x="312.92" y="217.38" width="9.48" height="8.69"/>
      <rect class="cls-7" x="312.92" y="208.69" width="9.48" height="8.69"/>
      <rect class="cls-7" x="312.92" y="199.99" width="9.48" height="8.69"/>
      <rect class="cls-7" x="312.92" y="191.3" width="9.48" height="8.69"/>
      <rect class="cls-7" x="312.92" y="182.6" width="9.48" height="8.69"/>
      <rect class="cls-7" x="312.92" y="173.91" width="9.48" height="8.69"/>
      <rect class="cls-7" x="312.92" y="165.21" width="9.48" height="8.69"/>
      <rect class="cls-7" x="312.92" y="156.52" width="9.48" height="8.69"/>
      <rect class="cls-7" x="312.92" y="147.82" width="9.48" height="8.69"/>
      <rect class="cls-3" x="312.92" y="139.13" width="9.48" height="8.69"/>
      <rect class="cls-3" x="312.92" y="130.43" width="9.48" height="8.69"/>
      <rect class="cls-3" x="312.92" y="121.74" width="9.48" height="8.69"/>
      <rect class="cls-3" x="312.92" y="113.04" width="9.48" height="8.69"/>
      <rect class="cls-3" x="312.92" y="104.35" width="9.48" height="8.69"/>
      <rect class="cls-3" x="312.92" y="95.65" width="9.48" height="8.69"/>
      <rect class="cls-6" x="312.92" y="86.96" width="9.48" height="8.69"/>
      <rect class="cls-6" x="312.92" y="78.26" width="9.48" height="8.69"/>
      <rect class="cls-6" x="312.92" y="69.57" width="9.48" height="8.69"/>
      <rect class="cls-6" x="312.92" y="60.87" width="9.48" height="8.69"/>
      <rect class="cls-6" x="312.92" y="52.17" width="9.48" height="8.7"/>
      <rect class="cls-6" x="312.92" y="43.48" width="9.48" height="8.69"/>
      <rect class="cls-6" x="312.92" y="34.78" width="9.48" height="8.69"/>
      <rect class="cls-6" x="312.92" y="26.09" width="9.48" height="8.69"/>
      <rect class="cls-6" x="312.92" y="17.39" width="9.48" height="8.69"/>
      <rect class="cls-6" x="312.92" y="8.7" width="9.48" height="8.69"/>
      <rect class="cls-6" x="312.92" width="9.48" height="8.69"/>
      <rect class="cls-3" x="322.4" y="234.77" width="9.48" height="8.69"/>
      <rect class="cls-3" x="322.4" y="226.08" width="9.48" height="8.69"/>
      <rect class="cls-3" x="322.4" y="217.38" width="9.48" height="8.69"/>
      <rect class="cls-3" x="322.4" y="208.69" width="9.48" height="8.69"/>
      <rect class="cls-3" x="322.4" y="199.99" width="9.48" height="8.69"/>
      <rect class="cls-3" x="322.4" y="191.3" width="9.48" height="8.69"/>
      <rect class="cls-3" x="322.4" y="182.6" width="9.48" height="8.69"/>
      <rect class="cls-3" x="322.4" y="173.91" width="9.48" height="8.69"/>
      <rect class="cls-3" x="322.4" y="165.21" width="9.48" height="8.69"/>
      <rect class="cls-3" x="322.4" y="156.52" width="9.48" height="8.69"/>
      <rect class="cls-7" x="322.4" y="147.82" width="9.48" height="8.69"/>
      <rect class="cls-7" x="322.4" y="139.13" width="9.48" height="8.69"/>
      <rect class="cls-7" x="322.4" y="130.43" width="9.48" height="8.69"/>
      <rect class="cls-7" x="322.4" y="121.74" width="9.48" height="8.69"/>
      <rect class="cls-7" x="322.4" y="113.04" width="9.48" height="8.69"/>
      <rect class="cls-7" x="322.4" y="104.35" width="9.48" height="8.69"/>
      <rect class="cls-7" x="322.4" y="95.65" width="9.48" height="8.69"/>
      <rect class="cls-6" x="322.4" y="86.96" width="9.48" height="8.69"/>
      <rect class="cls-6" x="322.4" y="78.26" width="9.48" height="8.69"/>
      <rect class="cls-6" x="322.4" y="69.57" width="9.48" height="8.69"/>
      <rect class="cls-6" x="322.4" y="60.87" width="9.48" height="8.69"/>
      <rect class="cls-2" x="322.4" y="52.17" width="9.48" height="8.7"/>
      <rect class="cls-2" x="322.4" y="43.48" width="9.48" height="8.69"/>
      <rect class="cls-2" x="322.4" y="34.78" width="9.48" height="8.69"/>
      <rect class="cls-2" x="322.4" y="26.09" width="9.48" height="8.69"/>
      <rect class="cls-2" x="322.4" y="17.39" width="9.48" height="8.69"/>
      <rect class="cls-6" x="322.4" y="8.7" width="9.48" height="8.69"/>
      <rect class="cls-6" x="322.4" width="9.48" height="8.69"/>
    </g>
  </g>
</svg>