<?xml version="1.0" encoding="UTF-8"?>
<svg id="Layer_2" data-name="Layer 2" xmlns="http://www.w3.org/2000/svg" viewBox="0 0 142.23 69.56">
  <defs>
    <style>
      .cls-1 {
        fill: #9e4354;
      }

      .cls-2 {
        fill: #128a43;
      }

      .cls-3 {
        fill: #105b2e;
      }

      .cls-4 {
        fill: #bf4c5d;
      }

      .cls-5 {
        fill: #117238;
      }

      .cls-6 {
        fill: #a9a9a7;
      }

      .cls-7 {
        fill: #0b4221;
      }

      .cls-8 {
        fill: #878789;
      }

      .cls-9 {
        fill: #c2c2c6;
      }
    </style>
  </defs>
  <g id="GIN">
    <g>
      <rect class="cls-4" x="104.31" width="9.48" height="8.69"/>
      <rect class="cls-4" x="94.82" width="9.48" height="8.69"/>
      <rect class="cls-5" x="104.31" y="8.7" width="9.48" height="8.69"/>
      <rect class="cls-7" x="94.82" y="8.7" width="9.48" height="8.69"/>
      <rect class="cls-7" x="85.34" y="52.17" width="9.48" height="8.69"/>
      <rect class="cls-7" x="85.34" y="43.48" width="9.48" height="8.69"/>
      <rect class="cls-1" x="85.34" y="34.78" width="9.48" height="8.69"/>
      <rect class="cls-7" x="85.34" y="26.09" width="9.48" height="8.69"/>
      <rect class="cls-7" x="85.34" y="17.39" width="9.48" height="8.69"/>
      <rect class="cls-3" x="94.82" y="52.17" width="9.48" height="8.69"/>
      <rect class="cls-3" x="94.82" y="43.48" width="9.48" height="8.69"/>
      <rect class="cls-4" x="94.82" y="34.78" width="9.48" height="8.69"/>
      <rect class="cls-3" x="94.82" y="26.09" width="9.48" height="8.69"/>
      <rect class="cls-3" x="94.82" y="17.39" width="9.48" height="8.69"/>
      <rect class="cls-5" x="104.31" y="52.17" width="9.48" height="8.69"/>
      <rect class="cls-5" x="104.31" y="43.48" width="9.48" height="8.69"/>
      <rect class="cls-4" x="104.31" y="34.78" width="9.48" height="8.69"/>
      <rect class="cls-5" x="104.31" y="26.09" width="9.48" height="8.69"/>
      <rect class="cls-5" x="104.31" y="17.39" width="9.48" height="8.69"/>
      <rect class="cls-2" x="113.79" y="52.17" width="9.48" height="8.69"/>
      <rect class="cls-2" x="113.79" y="43.48" width="9.48" height="8.69"/>
      <rect class="cls-4" x="113.79" y="34.78" width="9.48" height="8.69"/>
      <rect class="cls-2" x="113.79" y="26.09" width="9.48" height="8.69"/>
      <rect class="cls-2" x="113.79" y="17.39" width="9.48" height="8.69"/>
      <rect class="cls-8" y="60.87" width="9.48" height="8.69"/>
      <rect class="cls-8" x="9.48" y="60.87" width="9.48" height="8.69"/>
      <rect class="cls-9" x="9.48" y="52.17" width="9.48" height="8.69"/>
      <rect class="cls-1" x="9.48" y="43.48" width="9.48" height="8.69"/>
      <rect class="cls-1" x="9.48" y="34.78" width="9.48" height="8.69"/>
      <rect class="cls-9" x="9.48" y="26.09" width="9.48" height="8.69"/>
      <rect class="cls-8" x="18.96" y="60.87" width="9.48" height="8.69"/>
      <rect class="cls-9" x="18.96" y="52.17" width="9.48" height="8.69"/>
      <rect class="cls-4" x="18.96" y="43.48" width="9.48" height="8.69"/>
      <rect class="cls-4" x="18.96" y="34.78" width="9.48" height="8.69"/>
      <rect class="cls-9" x="18.96" y="26.09" width="9.48" height="8.69"/>
      <rect class="cls-4" x="18.96" y="17.39" width="9.48" height="8.69"/>
      <rect class="cls-9" x="18.96" y="8.7" width="9.48" height="8.69"/>
      <rect class="cls-4" x="18.96" width="9.48" height="8.69"/>
      <rect class="cls-8" x="28.45" y="60.87" width="9.48" height="8.69"/>
      <rect class="cls-9" x="28.45" y="52.17" width="9.48" height="8.69"/>
      <rect class="cls-4" x="28.45" y="43.48" width="9.48" height="8.69"/>
      <rect class="cls-4" x="28.45" y="34.78" width="9.48" height="8.69"/>
      <rect class="cls-9" x="28.45" y="26.09" width="9.48" height="8.69"/>
      <rect class="cls-8" x="37.93" y="60.87" width="9.48" height="8.69"/>
      <rect class="cls-6" x="47.41" y="60.87" width="9.48" height="8.69"/>
      <rect class="cls-6" x="56.89" y="60.87" width="9.48" height="8.69"/>
      <rect class="cls-6" x="66.38" y="60.87" width="9.48" height="8.69"/>
      <rect class="cls-9" x="75.86" y="60.87" width="9.48" height="8.69"/>
      <rect class="cls-9" x="85.34" y="60.87" width="9.48" height="8.69"/>
      <rect class="cls-9" x="94.82" y="60.87" width="9.48" height="8.69"/>
      <rect class="cls-9" x="104.31" y="60.87" width="9.48" height="8.69"/>
      <rect class="cls-9" x="113.79" y="60.87" width="9.48" height="8.69"/>
      <rect class="cls-9" x="123.27" y="60.87" width="9.48" height="8.69"/>
      <rect class="cls-9" x="132.75" y="60.87" width="9.48" height="8.69"/>
    </g>
  </g>
</svg>