<?xml version="1.0" encoding="UTF-8"?>
<svg id="Layer_2" data-name="Layer 2" xmlns="http://www.w3.org/2000/svg" viewBox="0 0 132.76 139.12">
  <defs>
    <style>
      .cls-1 {
        fill: #6c4527;
      }

      .cls-2 {
        fill: #e2a457;
      }

      .cls-3 {
        fill: #a9a9a7;
      }

      .cls-4 {
        fill: #94cee6;
      }

      .cls-5 {
        fill: #6ba1cd;
      }

      .cls-6 {
        fill: #efe1d5;
      }

      .cls-7 {
        fill: #9b6645;
      }

      .cls-8 {
        fill: #878789;
      }

      .cls-9 {
        fill: #c2c2c6;
      }

      .cls-10 {
        fill: #bc7c47;
      }
    </style>
  </defs>
  <g id="SIDE_TABLE_1" data-name="SIDE TABLE 1">
    <g>
      <g>
        <rect class="cls-1" y="130.43" width="9.48" height="8.69"/>
        <rect class="cls-10" y="69.57" width="9.48" height="8.69"/>
        <rect class="cls-1" x="9.48" y="121.74" width="9.48" height="8.69"/>
        <rect class="cls-10" x="9.48" y="69.57" width="9.48" height="8.69"/>
        <rect class="cls-5" x="9.48" y="60.87" width="9.48" height="8.69"/>
        <rect class="cls-6" x="9.48" y="52.18" width="9.48" height="8.69"/>
        <rect class="cls-4" x="9.48" y="43.48" width="9.48" height="8.69"/>
        <rect class="cls-6" x="9.48" y="34.79" width="9.48" height="8.69"/>
        <rect class="cls-1" x="18.97" y="113.04" width="9.48" height="8.69"/>
        <rect class="cls-1" x="18.97" y="104.35" width="9.48" height="8.69"/>
        <rect class="cls-1" x="18.97" y="95.65" width="9.48" height="8.69"/>
        <rect class="cls-7" x="18.97" y="78.26" width="9.48" height="8.69"/>
        <rect class="cls-10" x="18.97" y="69.57" width="9.48" height="8.69"/>
        <rect class="cls-4" x="18.97" y="60.87" width="9.48" height="8.69"/>
        <rect class="cls-6" x="18.97" y="52.18" width="9.48" height="8.69"/>
        <rect class="cls-5" x="18.97" y="43.48" width="9.48" height="8.69"/>
        <rect class="cls-6" x="18.97" y="34.79" width="9.48" height="8.69"/>
        <rect class="cls-1" x="28.45" y="95.65" width="9.48" height="8.69"/>
        <rect class="cls-1" x="28.45" y="86.96" width="9.48" height="8.69"/>
        <rect class="cls-7" x="28.45" y="78.26" width="9.48" height="8.69"/>
        <rect class="cls-10" x="28.45" y="69.57" width="9.48" height="8.69"/>
        <rect class="cls-7" x="37.93" y="78.26" width="9.48" height="8.69"/>
        <rect class="cls-10" x="37.93" y="69.57" width="9.48" height="8.69"/>
        <rect class="cls-4" x="37.93" y="60.87" width="9.48" height="8.69"/>
        <rect class="cls-6" x="37.93" y="52.18" width="9.48" height="8.69"/>
        <rect class="cls-5" x="37.93" y="43.48" width="9.48" height="8.69"/>
        <rect class="cls-6" x="37.93" y="34.79" width="9.48" height="8.69"/>
        <rect class="cls-7" x="47.41" y="78.26" width="9.48" height="8.69"/>
        <rect class="cls-10" x="47.41" y="69.57" width="9.48" height="8.69"/>
        <rect class="cls-5" x="47.41" y="60.87" width="9.48" height="8.69"/>
        <rect class="cls-6" x="47.41" y="52.18" width="9.48" height="8.69"/>
        <rect class="cls-5" x="47.41" y="43.48" width="9.48" height="8.69"/>
        <rect class="cls-6" x="47.41" y="34.79" width="9.48" height="8.69"/>
        <rect class="cls-7" x="56.9" y="78.26" width="9.48" height="8.69"/>
        <rect class="cls-10" x="56.9" y="69.57" width="9.48" height="8.69"/>
        <rect class="cls-7" x="66.38" y="78.26" width="9.48" height="8.69"/>
        <rect class="cls-10" x="66.38" y="69.57" width="9.48" height="8.69"/>
        <rect class="cls-7" x="75.86" y="78.26" width="9.48" height="8.69"/>
        <rect class="cls-10" x="75.86" y="69.57" width="9.48" height="8.69"/>
        <rect class="cls-7" x="85.34" y="78.26" width="9.48" height="8.69"/>
        <rect class="cls-10" x="85.34" y="69.57" width="9.48" height="8.69"/>
        <rect class="cls-1" x="94.83" y="95.65" width="9.48" height="8.69"/>
        <rect class="cls-1" x="94.83" y="86.96" width="9.48" height="8.69"/>
        <rect class="cls-7" x="94.83" y="78.26" width="9.48" height="8.69"/>
        <rect class="cls-10" x="94.83" y="69.57" width="9.48" height="8.69"/>
        <rect class="cls-1" x="104.31" y="113.04" width="9.48" height="8.69"/>
        <rect class="cls-1" x="104.31" y="104.35" width="9.48" height="8.69"/>
        <rect class="cls-1" x="104.31" y="95.65" width="9.48" height="8.69"/>
        <rect class="cls-7" x="104.31" y="78.26" width="9.48" height="8.69"/>
        <rect class="cls-10" x="104.31" y="69.57" width="9.48" height="8.69"/>
        <rect class="cls-1" x="113.79" y="121.74" width="9.48" height="8.69"/>
        <rect class="cls-10" x="113.79" y="69.57" width="9.48" height="8.69"/>
        <rect class="cls-1" x="123.27" y="130.43" width="9.48" height="8.69"/>
      </g>
      <g>
        <rect class="cls-6" x="85.35" width="9.48" height="8.69"/>
        <rect class="cls-9" x="66.38" y="60.87" width="9.48" height="8.69"/>
        <rect class="cls-9" x="66.38" y="52.17" width="9.48" height="8.69"/>
        <rect class="cls-9" x="66.38" y="43.47" width="9.48" height="8.7"/>
        <rect class="cls-9" x="66.38" y="34.78" width="9.48" height="8.69"/>
        <rect class="cls-9" x="66.38" y="26.08" width="9.48" height="8.69"/>
        <rect class="cls-9" x="66.38" y="17.39" width="9.48" height="8.69"/>
        <rect class="cls-9" x="75.87" y="60.87" width="9.48" height="8.69"/>
        <rect class="cls-2" x="75.87" y="52.17" width="9.48" height="8.69"/>
        <rect class="cls-2" x="75.87" y="43.47" width="9.48" height="8.7"/>
        <rect class="cls-2" x="75.87" y="34.78" width="9.48" height="8.69"/>
        <rect class="cls-6" x="75.87" y="26.08" width="9.48" height="8.69"/>
        <rect class="cls-9" x="75.87" y="17.39" width="9.48" height="8.69"/>
        <rect class="cls-6" x="75.87" y="8.69" width="9.48" height="8.69"/>
        <rect class="cls-9" x="85.35" y="60.87" width="9.48" height="8.69"/>
        <rect class="cls-2" x="85.35" y="52.17" width="9.48" height="8.69"/>
        <rect class="cls-2" x="85.35" y="43.47" width="9.48" height="8.7"/>
        <rect class="cls-2" x="85.35" y="34.78" width="9.48" height="8.69"/>
        <rect class="cls-6" x="85.35" y="26.08" width="9.48" height="8.69"/>
        <rect class="cls-9" x="85.35" y="17.39" width="9.48" height="8.69"/>
        <rect class="cls-6" x="85.35" y="8.69" width="9.48" height="8.69"/>
        <rect class="cls-8" x="94.83" y="60.87" width="9.48" height="8.69"/>
        <rect class="cls-2" x="94.83" y="52.17" width="9.48" height="8.69"/>
        <rect class="cls-2" x="94.83" y="43.47" width="9.48" height="8.7"/>
        <rect class="cls-2" x="94.83" y="34.78" width="9.48" height="8.69"/>
        <rect class="cls-6" x="94.83" y="26.08" width="9.48" height="8.69"/>
        <rect class="cls-3" x="94.83" y="17.39" width="9.48" height="8.69"/>
        <rect class="cls-6" x="94.83" y="8.69" width="9.48" height="8.69"/>
        <rect class="cls-8" x="104.31" y="60.87" width="9.48" height="8.69"/>
        <rect class="cls-8" x="104.31" y="52.17" width="9.48" height="8.69"/>
        <rect class="cls-8" x="104.31" y="43.47" width="9.48" height="8.7"/>
        <rect class="cls-8" x="104.31" y="34.78" width="9.48" height="8.69"/>
        <rect class="cls-3" x="104.31" y="26.08" width="9.48" height="8.69"/>
        <rect class="cls-3" x="104.31" y="17.39" width="9.48" height="8.69"/>
        <rect class="cls-8" x="113.8" y="60.87" width="9.48" height="8.69"/>
        <rect class="cls-8" x="113.8" y="26.08" width="9.48" height="8.69"/>
        <rect class="cls-8" x="123.28" y="52.17" width="9.48" height="8.69"/>
        <rect class="cls-8" x="123.28" y="43.47" width="9.48" height="8.7"/>
        <rect class="cls-8" x="123.28" y="34.78" width="9.48" height="8.69"/>
      </g>
    </g>
  </g>
</svg>