<?xml version="1.0" encoding="UTF-8"?>
<svg id="Layer_2" data-name="Layer 2" xmlns="http://www.w3.org/2000/svg" viewBox="0 0 132.75 260.85">
  <defs>
    <style>
      .cls-1 {
        fill: #128a43;
      }

      .cls-2 {
        fill: #117238;
      }

      .cls-3 {
        fill: #a9a9a7;
      }

      .cls-4 {
        fill: #6ba1cd;
      }

      .cls-5 {
        fill: #efe1d5;
      }

      .cls-6 {
        fill: #9b6645;
      }

      .cls-7 {
        fill: #0b4221;
      }

      .cls-8 {
        fill: #ecb726;
      }

      .cls-9 {
        fill: #878789;
      }

      .cls-10 {
        fill: #d8ccc3;
      }

      .cls-11 {
        fill: #c2c2c6;
      }

      .cls-12 {
        fill: #a72eaa;
      }
    </style>
  </defs>
  <g id="SHELVES_1" data-name="SHELVES 1">
    <g>
      <rect class="cls-1" x="47.41" width="9.48" height="8.69"/>
      <rect class="cls-1" x="37.93" y="8.69" width="9.48" height="8.69"/>
      <rect class="cls-1" x="47.41" y="8.69" width="9.48" height="8.69"/>
      <rect class="cls-1" x="28.45" y="8.69" width="9.48" height="8.69"/>
      <rect class="cls-1" x="28.45" y="17.39" width="9.48" height="8.69"/>
      <rect class="cls-1" x="37.93" y="43.47" width="9.48" height="8.69"/>
      <rect class="cls-1" x="37.93" y="34.78" width="9.48" height="8.69"/>
      <rect class="cls-1" x="37.93" y="26.08" width="9.48" height="8.69"/>
      <rect class="cls-1" x="37.93" y="17.39" width="9.48" height="8.69"/>
      <rect class="cls-1" x="47.41" y="34.78" width="9.48" height="8.69"/>
      <rect class="cls-1" x="56.89" y="34.78" width="9.48" height="8.69"/>
      <rect class="cls-1" x="66.38" y="34.78" width="9.48" height="8.69"/>
      <rect class="cls-1" x="56.89" y="43.47" width="9.48" height="8.69"/>
      <rect class="cls-1" x="56.89" y="52.17" width="9.48" height="8.69"/>
      <rect class="cls-1" x="37.93" y="52.17" width="9.48" height="8.69"/>
      <rect class="cls-1" x="18.96" y="34.78" width="9.48" height="8.69"/>
      <rect class="cls-1" x="18.96" y="43.47" width="9.48" height="8.69"/>
      <rect class="cls-1" x="28.45" y="43.47" width="9.48" height="8.69"/>
      <rect class="cls-1" x="28.45" y="52.17" width="9.48" height="8.69"/>
      <rect class="cls-1" x="47.41" y="43.47" width="9.48" height="8.69"/>
      <rect class="cls-1" x="47.41" y="52.17" width="9.48" height="8.69"/>
      <rect class="cls-2" x="37.93" width="9.48" height="8.69"/>
      <rect class="cls-2" x="9.48" y="8.69" width="9.48" height="8.69"/>
      <rect class="cls-2" x="9.48" y="17.39" width="9.48" height="8.69"/>
      <rect class="cls-2" x="18.96" y="17.39" width="9.48" height="8.69"/>
      <rect class="cls-2" x="28.45" y="26.08" width="9.48" height="8.69"/>
      <rect class="cls-2" x="18.96" y="26.08" width="9.48" height="8.69"/>
      <rect class="cls-2" x="28.45" y="34.78" width="9.48" height="8.69"/>
      <rect class="cls-2" x="56.89" y="26.08" width="9.48" height="8.69"/>
      <rect class="cls-2" x="56.89" y="17.39" width="9.48" height="8.69"/>
      <rect class="cls-2" x="66.38" y="17.39" width="9.48" height="8.69"/>
      <rect class="cls-2" x="66.38" y="8.69" width="9.48" height="8.69"/>
      <rect class="cls-2" x="75.86" y="8.69" width="9.48" height="8.69"/>
      <rect class="cls-2" x="75.86" width="9.48" height="8.69"/>
      <rect class="cls-2" x="66.38" width="9.48" height="8.69"/>
      <rect class="cls-2" x="56.89" y="8.69" width="9.48" height="8.69"/>
      <rect class="cls-2" x="47.41" y="17.39" width="9.48" height="8.69"/>
      <rect class="cls-2" x="47.41" y="26.08" width="9.48" height="8.69"/>
      <rect class="cls-2" x="9.48" y="43.47" width="9.48" height="8.69"/>
      <rect class="cls-2" x="9.48" y="52.17" width="9.48" height="8.69"/>
      <rect class="cls-2" x="18.96" y="52.17" width="9.48" height="8.69"/>
      <rect class="cls-2" x="28.45" y="60.86" width="9.48" height="8.69"/>
      <rect class="cls-2" x="66.38" y="52.17" width="9.48" height="8.69"/>
      <rect class="cls-2" x="56.89" y="60.86" width="9.48" height="8.69"/>
      <rect class="cls-2" x="47.41" y="69.56" width="9.48" height="8.69"/>
      <rect class="cls-2" x="47.41" y="60.86" width="9.48" height="8.69"/>
      <rect class="cls-1" x="37.93" y="60.86" width="9.48" height="8.69"/>
      <rect class="cls-2" x="37.93" y="69.56" width="9.48" height="8.69"/>
      <rect class="cls-1" x="47.41" y="130.43" width="9.48" height="8.69"/>
      <rect class="cls-7" x="47.41" y="121.73" width="9.48" height="8.69"/>
      <rect class="cls-7" x="47.41" y="139.12" width="9.48" height="8.69"/>
      <rect class="cls-10" x="56.89" y="78.25" width="9.48" height="8.69"/>
      <rect class="cls-10" x="47.41" y="95.64" width="9.48" height="8.69"/>
      <rect class="cls-10" x="47.41" y="86.95" width="9.48" height="8.69"/>
      <rect class="cls-5" x="28.45" y="95.64" width="9.48" height="8.69"/>
      <rect class="cls-5" x="28.45" y="86.95" width="9.48" height="8.69"/>
      <rect class="cls-5" x="37.93" y="95.64" width="9.48" height="8.69"/>
      <rect class="cls-5" x="37.93" y="86.95" width="9.48" height="8.69"/>
      <rect class="cls-5" x="18.96" y="78.25" width="9.48" height="8.69"/>
      <rect class="cls-5" x="28.45" y="78.25" width="9.48" height="8.69"/>
      <rect class="cls-5" x="37.93" y="78.25" width="9.48" height="8.69"/>
      <rect class="cls-10" x="47.41" y="78.25" width="9.48" height="8.69"/>
      <rect class="cls-6" x="37.93" y="156.51" width="9.48" height="8.69"/>
      <rect class="cls-6" x="37.93" y="147.82" width="9.48" height="8.69"/>
      <rect class="cls-6" x="37.93" y="139.12" width="9.48" height="8.69"/>
      <rect class="cls-6" x="47.41" y="156.51" width="9.48" height="8.69"/>
      <rect class="cls-1" x="47.41" y="147.82" width="9.48" height="8.69"/>
      <rect class="cls-6" x="56.89" y="156.51" width="9.48" height="8.69"/>
      <rect class="cls-6" x="56.89" y="147.82" width="9.48" height="8.69"/>
      <rect class="cls-6" x="56.89" y="139.12" width="9.48" height="8.69"/>
      <rect class="cls-12" y="226.07" width="9.48" height="8.69"/>
      <rect class="cls-11" y="104.34" width="9.48" height="8.69"/>
      <rect class="cls-11" x="9.48" y="252.16" width="9.48" height="8.69"/>
      <rect class="cls-4" x="9.48" y="234.77" width="9.48" height="8.69"/>
      <rect class="cls-12" x="9.48" y="226.07" width="9.48" height="8.69"/>
      <rect class="cls-11" x="9.48" y="104.34" width="9.48" height="8.69"/>
      <rect class="cls-11" x="18.96" y="252.16" width="9.48" height="8.69"/>
      <rect class="cls-1" x="18.96" y="243.46" width="9.48" height="8.69"/>
      <rect class="cls-4" x="18.96" y="234.77" width="9.48" height="8.69"/>
      <rect class="cls-12" x="18.96" y="226.07" width="9.48" height="8.69"/>
      <rect class="cls-11" x="18.96" y="104.34" width="9.48" height="8.69"/>
      <rect class="cls-11" x="28.45" y="252.16" width="9.48" height="8.69"/>
      <rect class="cls-1" x="28.45" y="243.46" width="9.48" height="8.69"/>
      <rect class="cls-4" x="28.45" y="234.77" width="9.48" height="8.69"/>
      <rect class="cls-11" x="28.45" y="165.21" width="9.48" height="8.69"/>
      <rect class="cls-11" x="28.45" y="104.34" width="9.48" height="8.69"/>
      <rect class="cls-11" x="37.93" y="252.16" width="9.48" height="8.69"/>
      <rect class="cls-1" x="37.93" y="243.46" width="9.48" height="8.69"/>
      <rect class="cls-11" x="37.93" y="217.38" width="9.48" height="8.69"/>
      <rect class="cls-4" x="37.93" y="208.68" width="9.48" height="8.69"/>
      <rect class="cls-4" x="37.93" y="199.99" width="9.48" height="8.69"/>
      <rect class="cls-4" x="37.93" y="191.29" width="9.48" height="8.69"/>
      <rect class="cls-11" x="37.93" y="165.21" width="9.48" height="8.69"/>
      <rect class="cls-11" x="37.93" y="104.34" width="9.48" height="8.69"/>
      <rect class="cls-11" x="47.41" y="252.16" width="9.48" height="8.69"/>
      <rect class="cls-11" x="47.41" y="217.38" width="9.48" height="8.69"/>
      <rect class="cls-12" x="47.41" y="208.68" width="9.48" height="8.69"/>
      <rect class="cls-12" x="47.41" y="199.99" width="9.48" height="8.69"/>
      <rect class="cls-12" x="47.41" y="191.29" width="9.48" height="8.69"/>
      <rect class="cls-11" x="47.41" y="165.21" width="9.48" height="8.69"/>
      <rect class="cls-11" x="47.41" y="104.34" width="9.48" height="8.69"/>
      <rect class="cls-11" x="56.89" y="252.16" width="9.48" height="8.69"/>
      <rect class="cls-11" x="56.89" y="217.38" width="9.48" height="8.69"/>
      <rect class="cls-1" x="56.89" y="208.68" width="9.48" height="8.69"/>
      <rect class="cls-11" x="56.89" y="165.21" width="9.48" height="8.69"/>
      <rect class="cls-11" x="56.89" y="104.34" width="9.48" height="8.69"/>
      <rect class="cls-3" x="66.38" y="252.16" width="9.48" height="8.69"/>
      <rect class="cls-11" x="66.38" y="217.38" width="9.48" height="8.69"/>
      <rect class="cls-1" x="66.38" y="208.68" width="9.48" height="8.69"/>
      <rect class="cls-8" x="66.38" y="199.99" width="9.48" height="8.69"/>
      <rect class="cls-11" x="66.38" y="165.21" width="9.48" height="8.69"/>
      <rect class="cls-11" x="66.38" y="104.34" width="9.48" height="8.69"/>
      <rect class="cls-3" x="75.86" y="252.16" width="9.48" height="8.69"/>
      <rect class="cls-3" x="75.86" y="217.38" width="9.48" height="8.69"/>
      <rect class="cls-1" x="75.86" y="208.68" width="9.48" height="8.69"/>
      <rect class="cls-8" x="75.86" y="199.99" width="9.48" height="8.69"/>
      <rect class="cls-11" x="75.86" y="165.21" width="9.48" height="8.69"/>
      <rect class="cls-11" x="75.86" y="104.34" width="9.48" height="8.69"/>
      <rect class="cls-3" x="85.34" y="252.16" width="9.48" height="8.69"/>
      <rect class="cls-3" x="85.34" y="217.38" width="9.48" height="8.69"/>
      <rect class="cls-8" x="85.34" y="199.99" width="9.48" height="8.69"/>
      <rect class="cls-11" x="85.34" y="165.21" width="9.48" height="8.69"/>
      <rect class="cls-3" x="85.34" y="104.34" width="9.48" height="8.69"/>
      <rect class="cls-9" x="94.82" y="252.16" width="9.48" height="8.69"/>
      <rect class="cls-3" x="94.82" y="217.38" width="9.48" height="8.69"/>
      <rect class="cls-11" x="94.82" y="165.21" width="9.48" height="8.69"/>
      <rect class="cls-3" x="94.82" y="104.34" width="9.48" height="8.69"/>
      <rect class="cls-9" x="104.31" y="252.16" width="9.48" height="8.69"/>
      <rect class="cls-9" x="104.31" y="217.38" width="9.48" height="8.69"/>
      <rect class="cls-3" x="104.31" y="165.21" width="9.48" height="8.69"/>
      <rect class="cls-3" x="104.31" y="104.34" width="9.48" height="8.69"/>
      <rect class="cls-9" x="113.79" y="252.16" width="9.48" height="8.69"/>
      <rect class="cls-3" x="113.79" y="165.21" width="9.48" height="8.69"/>
      <rect class="cls-3" x="113.79" y="104.34" width="9.48" height="8.69"/>
      <rect class="cls-9" x="123.27" y="252.16" width="9.48" height="8.69"/>
    </g>
  </g>
</svg>