<?xml version="1.0" encoding="UTF-8"?>
<svg id="Layer_2" data-name="Layer 2" xmlns="http://www.w3.org/2000/svg" viewBox="0 0 293.96 217.55">
  <defs>
    <style>
      .cls-1 {
        fill: #111;
      }

      .cls-2 {
        fill: #2a2014;
      }

      .cls-3 {
        fill: #6c4527;
      }

      .cls-4 {
        fill: #232323;
      }

      .cls-5 {
        fill: #545454;
      }

      .cls-6 {
        fill: #128a43;
      }

      .cls-7 {
        fill: #3b3b3b;
      }

      .cls-8 {
        fill: #105b2e;
      }

      .cls-9 {
        fill: #bf4c5d;
      }

      .cls-10 {
        fill: #117238;
      }

      .cls-11 {
        fill: #cc996e;
      }

      .cls-12 {
        fill: #8e6040;
      }

      .cls-13 {
        fill: #b27c52;
      }

      .cls-14 {
        fill: #0b4221;
      }

      .cls-15 {
        fill: #6d6d6c;
      }

      .cls-16 {
        fill: #e86975;
      }

      .cls-17 {
        fill: #82807f;
      }

      .cls-18 {
        fill: #325149;
      }

      .cls-19 {
        fill: #3b2d1c;
      }
    </style>
  </defs>
  <g id="SOFA">
    <g>
      <g>
        <rect class="cls-5" x="37.92" y="43.57" width="9.49" height="8.72"/>
        <rect class="cls-5" x="37.92" y="52.29" width="9.49" height="8.71"/>
        <rect class="cls-5" x="28.44" y="43.57" width="9.49" height="8.72"/>
        <rect class="cls-5" x="28.44" y="34.85" width="9.49" height="8.72"/>
        <rect class="cls-5" x="28.44" y="52.29" width="9.49" height="8.71"/>
        <rect class="cls-5" x="28.44" y="61" width="9.49" height="8.72"/>
        <rect class="cls-15" x="37.92" y="34.85" width="9.49" height="8.72"/>
        <rect class="cls-15" x="47.41" y="34.85" width="9.48" height="8.72"/>
        <rect class="cls-15" x="28.44" y="17.43" width="9.49" height="8.72"/>
        <rect class="cls-15" x="28.44" y="26.15" width="9.49" height="8.71"/>
        <rect class="cls-15" x="37.92" y="17.43" width="9.49" height="8.72"/>
        <rect class="cls-15" x="37.92" y="26.15" width="9.49" height="8.71"/>
        <rect class="cls-5" x="37.92" y="8.71" width="9.49" height="8.72"/>
        <rect class="cls-15" x="47.41" y="8.71" width="9.48" height="8.72"/>
        <rect class="cls-5" x="56.89" width="9.49" height="8.71"/>
        <rect class="cls-5" x="66.37" width="9.49" height="8.71"/>
        <rect class="cls-5" x="75.86" width="9.48" height="8.71"/>
        <rect class="cls-15" x="85.34" width="9.49" height="8.71"/>
        <rect class="cls-15" x="94.82" width="9.49" height="8.71"/>
        <rect class="cls-9" x="28.44" y="113.29" width="9.49" height="8.72"/>
        <rect class="cls-9" x="28.44" y="104.57" width="9.49" height="8.72"/>
        <rect class="cls-9" x="28.44" y="95.86" width="9.49" height="8.71"/>
        <rect class="cls-9" x="113.78" y="87.15" width="9.49" height="8.71"/>
        <rect class="cls-9" x="123.27" y="87.15" width="9.49" height="8.71"/>
        <rect class="cls-9" x="123.27" y="104.58" width="9.49" height="8.71"/>
        <rect class="cls-9" x="113.78" y="104.58" width="9.49" height="8.71"/>
        <rect class="cls-9" x="132.74" y="87.15" width="9.49" height="8.71"/>
        <rect class="cls-9" x="132.74" y="104.58" width="9.49" height="8.71"/>
        <rect class="cls-13" x="37.92" y="122.01" width="9.49" height="8.71"/>
        <rect class="cls-13" x="142.22" y="87.15" width="9.49" height="8.71"/>
        <rect class="cls-16" x="37.92" y="113.29" width="9.49" height="8.72"/>
        <rect class="cls-16" x="37.92" y="104.57" width="9.49" height="8.72"/>
        <rect class="cls-16" x="37.92" y="95.86" width="9.49" height="8.71"/>
        <rect class="cls-9" x="37.92" y="87.15" width="9.49" height="8.72"/>
        <rect class="cls-12" x="37.92" y="69.72" width="9.49" height="8.71"/>
        <rect class="cls-12" x="37.92" y="61" width="9.49" height="8.72"/>
        <rect class="cls-1" x="47.41" y="130.72" width="9.48" height="8.72"/>
        <rect class="cls-11" x="47.41" y="122.01" width="9.48" height="8.71"/>
        <rect class="cls-11" x="142.22" y="95.86" width="9.48" height="8.71"/>
        <rect class="cls-11" x="142.22" y="104.58" width="9.48" height="8.71"/>
        <rect class="cls-16" x="47.41" y="113.29" width="9.48" height="8.72"/>
        <rect class="cls-16" x="132.75" y="95.86" width="9.48" height="8.72"/>
        <rect class="cls-16" x="47.41" y="104.57" width="9.48" height="8.72"/>
        <rect class="cls-16" x="123.27" y="95.86" width="9.48" height="8.72"/>
        <rect class="cls-16" x="47.41" y="95.86" width="9.48" height="8.71"/>
        <rect class="cls-16" x="113.79" y="95.86" width="9.48" height="8.71"/>
        <rect class="cls-9" x="47.41" y="87.15" width="9.48" height="8.72"/>
        <rect class="cls-12" x="47.41" y="78.43" width="9.48" height="8.72"/>
        <rect class="cls-12" x="47.41" y="69.72" width="9.48" height="8.71"/>
        <rect class="cls-12" x="47.41" y="61" width="9.48" height="8.72"/>
        <rect class="cls-12" x="47.41" y="52.29" width="9.48" height="8.71"/>
        <rect class="cls-12" x="47.41" y="43.57" width="9.48" height="8.72"/>
        <rect class="cls-17" x="47.41" y="26.15" width="9.48" height="8.71"/>
        <rect class="cls-17" x="47.41" y="17.43" width="9.48" height="8.72"/>
        <rect class="cls-7" x="56.89" y="130.72" width="9.49" height="8.72"/>
        <rect class="cls-11" x="56.89" y="122.01" width="9.49" height="8.71"/>
        <rect class="cls-9" x="56.89" y="113.29" width="9.49" height="8.72"/>
        <rect class="cls-9" x="56.89" y="104.57" width="9.49" height="8.72"/>
        <rect class="cls-16" x="56.89" y="95.86" width="9.49" height="8.71"/>
        <rect class="cls-9" x="56.89" y="87.15" width="9.49" height="8.72"/>
        <rect class="cls-12" x="56.89" y="78.43" width="9.49" height="8.72"/>
        <rect class="cls-13" x="56.89" y="69.72" width="9.49" height="8.71"/>
        <rect class="cls-13" x="56.89" y="61" width="9.49" height="8.72"/>
        <rect class="cls-13" x="56.89" y="52.29" width="9.49" height="8.71"/>
        <rect class="cls-13" x="56.89" y="43.57" width="9.49" height="8.72"/>
        <rect class="cls-17" x="56.89" y="34.85" width="9.49" height="8.72"/>
        <rect class="cls-17" x="56.89" y="26.15" width="9.49" height="8.71"/>
        <rect class="cls-17" x="56.89" y="17.43" width="9.49" height="8.72"/>
        <rect class="cls-15" x="56.89" y="8.71" width="9.49" height="8.72"/>
        <rect class="cls-4" x="66.37" y="130.72" width="9.49" height="8.72"/>
        <rect class="cls-7" x="66.37" y="122.01" width="9.49" height="8.71"/>
        <rect class="cls-1" x="66.37" y="113.29" width="9.49" height="8.72"/>
        <rect class="cls-16" x="66.37" y="104.57" width="9.49" height="8.72"/>
        <rect class="cls-16" x="66.37" y="95.86" width="9.49" height="8.71"/>
        <rect class="cls-9" x="66.37" y="87.15" width="9.49" height="8.72"/>
        <rect class="cls-13" x="66.37" y="78.43" width="9.49" height="8.72"/>
        <rect class="cls-11" x="66.37" y="69.72" width="9.49" height="8.71"/>
        <rect class="cls-11" x="66.37" y="61" width="9.49" height="8.72"/>
        <rect class="cls-19" x="66.37" y="52.29" width="9.49" height="8.71"/>
        <rect class="cls-2" x="66.37" y="43.57" width="9.49" height="8.72"/>
        <rect class="cls-17" x="66.37" y="34.85" width="9.49" height="8.72"/>
        <rect class="cls-17" x="66.37" y="26.15" width="9.49" height="8.71"/>
        <rect class="cls-17" x="66.37" y="17.43" width="9.49" height="8.72"/>
        <rect class="cls-17" x="66.37" y="8.71" width="9.49" height="8.72"/>
        <rect class="cls-4" x="75.86" y="122.01" width="9.48" height="8.71"/>
        <rect class="cls-1" x="75.86" y="113.29" width="9.48" height="8.72"/>
        <rect class="cls-16" x="75.86" y="104.57" width="9.48" height="8.72"/>
        <rect class="cls-16" x="75.86" y="95.86" width="9.48" height="8.71"/>
        <rect class="cls-9" x="75.86" y="87.15" width="9.48" height="8.72"/>
        <rect class="cls-11" x="75.86" y="78.43" width="9.48" height="8.72"/>
        <rect class="cls-11" x="75.86" y="69.72" width="9.48" height="8.71"/>
        <rect class="cls-11" x="75.86" y="61" width="9.48" height="8.72"/>
        <rect class="cls-11" x="75.86" y="52.29" width="9.48" height="8.71"/>
        <rect class="cls-13" x="75.86" y="43.57" width="9.48" height="8.72"/>
        <rect class="cls-15" x="75.86" y="34.85" width="9.48" height="8.72"/>
        <rect class="cls-17" x="75.86" y="26.15" width="9.48" height="8.71"/>
        <rect class="cls-17" x="75.86" y="17.43" width="9.48" height="8.72"/>
        <rect class="cls-17" x="75.86" y="8.71" width="9.48" height="8.72"/>
        <rect class="cls-1" x="85.34" y="130.72" width="9.49" height="8.72"/>
        <rect class="cls-1" x="85.34" y="122.01" width="9.49" height="8.71"/>
        <rect class="cls-1" x="85.34" y="113.29" width="9.49" height="8.72"/>
        <rect class="cls-16" x="85.34" y="104.57" width="9.49" height="8.72"/>
        <rect class="cls-16" x="85.34" y="95.86" width="9.49" height="8.71"/>
        <rect class="cls-9" x="85.34" y="87.15" width="9.49" height="8.72"/>
        <rect class="cls-11" x="85.34" y="78.43" width="9.49" height="8.72"/>
        <rect class="cls-11" x="85.34" y="69.72" width="9.49" height="8.71"/>
        <rect class="cls-11" x="85.34" y="61" width="9.49" height="8.72"/>
        <rect class="cls-11" x="85.34" y="52.29" width="9.49" height="8.71"/>
        <rect class="cls-13" x="85.34" y="43.57" width="9.49" height="8.72"/>
        <rect class="cls-17" x="94.82" y="17.43" width="9.49" height="8.72"/>
        <rect class="cls-17" x="85.34" y="17.43" width="9.49" height="8.72"/>
        <rect class="cls-17" x="85.34" y="8.71" width="9.49" height="8.72"/>
        <rect class="cls-7" x="94.82" y="130.72" width="9.49" height="8.72"/>
        <rect class="cls-7" x="94.82" y="122.01" width="9.49" height="8.71"/>
        <rect class="cls-1" x="94.82" y="113.29" width="9.49" height="8.72"/>
        <rect class="cls-9" x="94.82" y="104.57" width="9.49" height="8.72"/>
        <rect class="cls-9" x="94.82" y="95.86" width="9.49" height="8.71"/>
        <rect class="cls-9" x="94.82" y="87.15" width="9.49" height="8.72"/>
        <rect class="cls-11" x="94.82" y="78.43" width="9.49" height="8.72"/>
        <rect class="cls-11" x="94.82" y="69.72" width="9.49" height="8.71"/>
        <rect class="cls-11" x="94.82" y="61" width="9.49" height="8.72"/>
        <rect class="cls-11" x="94.82" y="52.29" width="9.49" height="8.71"/>
        <rect class="cls-13" x="94.82" y="43.57" width="9.49" height="8.72"/>
        <rect class="cls-17" x="94.82" y="8.71" width="9.49" height="8.72"/>
        <rect class="cls-4" x="104.31" y="130.72" width="9.48" height="8.72"/>
        <rect class="cls-7" x="104.31" y="122.01" width="9.48" height="8.71"/>
        <rect class="cls-1" x="104.31" y="113.29" width="9.48" height="8.72"/>
        <rect class="cls-16" x="104.31" y="104.57" width="9.48" height="8.72"/>
        <rect class="cls-16" x="104.31" y="95.86" width="9.48" height="8.71"/>
        <rect class="cls-9" x="104.31" y="87.15" width="9.48" height="8.72"/>
        <rect class="cls-11" x="104.31" y="78.43" width="9.48" height="8.72"/>
        <rect class="cls-11" x="104.31" y="69.72" width="9.48" height="8.71"/>
        <rect class="cls-11" x="104.31" y="61" width="9.48" height="8.72"/>
        <rect class="cls-12" x="104.31" y="52.29" width="9.48" height="8.71"/>
        <rect class="cls-13" x="104.31" y="34.85" width="9.48" height="8.72"/>
        <rect class="cls-13" x="104.31" y="26.14" width="9.48" height="8.72"/>
        <rect class="cls-13" x="94.83" y="34.85" width="9.48" height="8.72"/>
        <rect class="cls-13" x="85.34" y="34.85" width="9.48" height="8.72"/>
        <rect class="cls-17" x="104.31" y="8.71" width="9.48" height="8.72"/>
        <rect class="cls-17" x="104.31" width="9.48" height="8.71"/>
        <rect class="cls-13" x="113.78" y="78.43" width="9.49" height="8.72"/>
        <rect class="cls-11" x="113.78" y="69.72" width="9.49" height="8.71"/>
        <rect class="cls-11" x="113.78" y="61" width="9.49" height="8.72"/>
        <rect class="cls-11" x="113.78" y="52.29" width="9.49" height="8.71"/>
        <rect class="cls-11" x="104.3" y="43.55" width="9.49" height="8.71"/>
        <rect class="cls-13" x="113.78" y="43.57" width="9.49" height="8.72"/>
        <rect class="cls-13" x="113.78" y="34.85" width="9.49" height="8.72"/>
        <rect class="cls-15" x="113.78" y="26.15" width="9.49" height="8.71"/>
        <rect class="cls-15" x="104.3" y="17.43" width="9.49" height="8.71"/>
        <rect class="cls-15" x="94.82" y="26.15" width="9.49" height="8.71"/>
        <rect class="cls-15" x="85.33" y="26.15" width="9.49" height="8.71"/>
        <rect class="cls-17" x="113.78" y="17.43" width="9.49" height="8.72"/>
        <rect class="cls-17" x="113.78" y="61" width="9.49" height="8.72"/>
        <rect class="cls-17" x="94.82" y="61" width="9.49" height="8.72"/>
        <rect class="cls-17" x="104.3" y="61" width="9.49" height="8.72"/>
        <rect class="cls-17" x="113.78" y="8.71" width="9.49" height="8.72"/>
        <rect class="cls-17" x="113.78" width="9.49" height="8.71"/>
        <rect class="cls-13" x="123.27" y="69.72" width="9.48" height="8.71"/>
        <rect class="cls-11" x="123.27" y="61" width="9.48" height="8.72"/>
        <rect class="cls-19" x="123.27" y="52.29" width="9.48" height="8.71"/>
        <rect class="cls-2" x="123.27" y="43.57" width="9.48" height="8.72"/>
        <rect class="cls-13" x="123.27" y="34.85" width="9.48" height="8.72"/>
        <rect class="cls-15" x="123.27" y="26.15" width="9.48" height="8.71"/>
        <rect class="cls-17" x="123.27" y="17.43" width="9.48" height="8.72"/>
        <rect class="cls-17" x="132.74" y="17.43" width="9.48" height="8.72"/>
        <rect class="cls-17" x="142.22" y="43.57" width="9.48" height="8.72"/>
        <rect class="cls-17" x="132.75" y="34.85" width="9.48" height="8.72"/>
        <rect class="cls-17" x="132.75" y="26.14" width="9.48" height="8.72"/>
        <rect class="cls-17" x="123.27" y="8.71" width="9.48" height="8.72"/>
        <rect class="cls-15" x="123.27" width="9.48" height="8.71"/>
        <rect class="cls-15" x="142.22" y="34.85" width="9.49" height="8.72"/>
        <rect class="cls-17" x="123.27" y="69.71" width="9.49" height="8.72"/>
        <rect class="cls-17" x="113.78" y="78.43" width="9.49" height="8.72"/>
        <rect class="cls-17" x="104.3" y="78.43" width="9.49" height="8.72"/>
        <rect class="cls-15" x="94.82" y="78.43" width="9.49" height="8.72"/>
        <rect class="cls-15" x="85.34" y="69.71" width="9.49" height="8.72"/>
        <rect class="cls-15" x="132.75" y="8.71" width="9.49" height="8.72"/>
        <rect class="cls-15" x="142.22" y="17.43" width="9.49" height="8.72"/>
        <rect class="cls-15" x="142.22" y="26.14" width="9.49" height="8.72"/>
      </g>
      <g>
        <rect class="cls-14" y="200.17" width="9.48" height="8.69"/>
        <rect class="cls-18" y="200.16" width="9.48" height=".01"/>
        <rect class="cls-14" y="191.47" width="9.48" height="8.69"/>
        <rect class="cls-14" y="182.78" width="9.48" height="8.69"/>
        <rect class="cls-14" y="174.08" width="9.48" height="8.69"/>
        <rect class="cls-14" y="165.39" width="9.48" height="8.69"/>
        <rect class="cls-14" y="156.69" width="9.48" height="8.69"/>
        <rect class="cls-14" y="148" width="9.48" height="8.69"/>
        <rect class="cls-14" y="139.3" width="9.48" height="8.69"/>
        <rect class="cls-14" y="130.61" width="9.48" height="8.69"/>
        <rect class="cls-3" x="9.49" y="208.86" width="9.48" height="8.69"/>
        <rect class="cls-14" x="9.49" y="200.17" width="9.48" height="8.69"/>
        <rect class="cls-8" x="9.49" y="191.47" width="9.48" height="8.69"/>
        <rect class="cls-8" x="9.49" y="182.78" width="9.48" height="8.69"/>
        <rect class="cls-8" x="9.49" y="174.08" width="9.48" height="8.69"/>
        <rect class="cls-8" x="9.49" y="165.39" width="9.48" height="8.69"/>
        <rect class="cls-8" x="9.49" y="156.69" width="9.48" height="8.69"/>
        <rect class="cls-8" x="9.49" y="148" width="9.48" height="8.69"/>
        <rect class="cls-8" x="9.49" y="139.3" width="9.48" height="8.69"/>
        <rect class="cls-8" x="9.49" y="130.61" width="9.48" height="8.69"/>
        <rect class="cls-14" x="18.97" y="200.17" width="9.48" height="8.69"/>
        <rect class="cls-8" x="18.97" y="191.47" width="9.48" height="8.69"/>
        <rect class="cls-8" x="18.97" y="182.78" width="9.48" height="8.69"/>
        <rect class="cls-8" x="18.97" y="174.08" width="9.48" height="8.69"/>
        <rect class="cls-8" x="18.97" y="165.39" width="9.48" height="8.69"/>
        <rect class="cls-8" x="18.97" y="156.69" width="9.48" height="8.69"/>
        <rect class="cls-8" x="18.97" y="148" width="9.48" height="8.69"/>
        <rect class="cls-8" x="18.97" y="139.3" width="9.48" height="8.69"/>
        <rect class="cls-8" x="18.97" y="130.61" width="9.48" height="8.69"/>
        <rect class="cls-10" x="28.45" y="200.17" width="9.48" height="8.69"/>
        <rect class="cls-10" x="28.45" y="191.47" width="9.48" height="8.69"/>
        <rect class="cls-10" x="28.45" y="182.78" width="9.48" height="8.69"/>
        <rect class="cls-10" x="28.45" y="174.08" width="9.48" height="8.69"/>
        <rect class="cls-10" x="28.45" y="165.39" width="9.48" height="8.69"/>
        <rect class="cls-10" x="28.45" y="156.69" width="9.48" height="8.69"/>
        <rect class="cls-10" x="28.45" y="148" width="9.48" height="8.69"/>
        <rect class="cls-10" x="28.45" y="139.3" width="9.48" height="8.69"/>
        <rect class="cls-10" x="28.45" y="130.61" width="9.48" height="8.69"/>
        <rect class="cls-10" x="28.45" y="121.91" width="9.48" height="8.69"/>
        <rect class="cls-10" x="28.45" y="113.22" width="9.48" height="8.69"/>
        <rect class="cls-6" x="28.45" y="104.52" width="9.48" height="8.69"/>
        <rect class="cls-10" x="37.93" y="200.17" width="9.48" height="8.69"/>
        <rect class="cls-10" x="37.93" y="191.47" width="9.48" height="8.69"/>
        <rect class="cls-10" x="37.93" y="182.78" width="9.48" height="8.69"/>
        <rect class="cls-10" x="37.93" y="174.08" width="9.48" height="8.69"/>
        <rect class="cls-10" x="37.93" y="165.39" width="9.48" height="8.69"/>
        <rect class="cls-10" x="37.93" y="156.69" width="9.48" height="8.69"/>
        <rect class="cls-10" x="37.93" y="148" width="9.48" height="8.69"/>
        <rect class="cls-10" x="37.93" y="139.3" width="9.48" height="8.69"/>
        <rect class="cls-10" x="37.93" y="130.61" width="9.48" height="8.69"/>
        <rect class="cls-10" x="37.93" y="121.91" width="9.48" height="8.69"/>
        <rect class="cls-10" x="37.93" y="113.22" width="9.48" height="8.69"/>
        <rect class="cls-6" x="37.93" y="104.52" width="9.48" height="8.69"/>
        <rect class="cls-6" x="37.93" y="95.83" width="9.48" height="8.69"/>
        <rect class="cls-10" x="47.41" y="200.17" width="9.48" height="8.69"/>
        <rect class="cls-10" x="47.41" y="191.47" width="9.48" height="8.69"/>
        <rect class="cls-10" x="47.41" y="182.78" width="9.48" height="8.69"/>
        <rect class="cls-10" x="47.41" y="174.08" width="9.48" height="8.69"/>
        <rect class="cls-10" x="47.41" y="165.39" width="9.48" height="8.69"/>
        <rect class="cls-10" x="47.41" y="156.69" width="9.48" height="8.69"/>
        <rect class="cls-10" x="47.41" y="148" width="9.48" height="8.69"/>
        <rect class="cls-10" x="47.41" y="139.3" width="9.48" height="8.69"/>
        <rect class="cls-10" x="47.41" y="130.61" width="9.48" height="8.69"/>
        <rect class="cls-10" x="47.41" y="121.91" width="9.48" height="8.69"/>
        <rect class="cls-6" x="47.41" y="113.22" width="9.48" height="8.69"/>
        <rect class="cls-6" x="47.41" y="104.52" width="9.48" height="8.69"/>
        <rect class="cls-6" x="47.41" y="95.83" width="9.48" height="8.69"/>
        <rect class="cls-10" x="56.9" y="200.17" width="9.48" height="8.69"/>
        <rect class="cls-10" x="56.9" y="191.47" width="9.48" height="8.69"/>
        <rect class="cls-10" x="56.9" y="182.78" width="9.48" height="8.69"/>
        <rect class="cls-10" x="56.9" y="174.08" width="9.48" height="8.69"/>
        <rect class="cls-10" x="56.9" y="165.39" width="9.48" height="8.69"/>
        <rect class="cls-10" x="56.9" y="156.69" width="9.48" height="8.69"/>
        <rect class="cls-10" x="56.9" y="148" width="9.48" height="8.69"/>
        <rect class="cls-10" x="56.9" y="139.3" width="9.48" height="8.69"/>
        <rect class="cls-10" x="56.9" y="130.61" width="9.48" height="8.69"/>
        <rect class="cls-6" x="56.9" y="121.91" width="9.48" height="8.69"/>
        <rect class="cls-6" x="56.9" y="113.22" width="9.48" height="8.69"/>
        <rect class="cls-6" x="56.9" y="104.52" width="9.48" height="8.69"/>
        <rect class="cls-6" x="56.9" y="95.83" width="9.48" height="8.69"/>
        <rect class="cls-10" x="66.38" y="200.17" width="9.48" height="8.69"/>
        <rect class="cls-10" x="66.38" y="191.47" width="9.48" height="8.69"/>
        <rect class="cls-10" x="66.38" y="182.78" width="9.48" height="8.69"/>
        <rect class="cls-10" x="66.38" y="174.08" width="9.48" height="8.69"/>
        <rect class="cls-10" x="66.38" y="165.39" width="9.48" height="8.69"/>
        <rect class="cls-10" x="66.38" y="156.69" width="9.48" height="8.69"/>
        <rect class="cls-10" x="66.38" y="148" width="9.48" height="8.69"/>
        <rect class="cls-10" x="66.38" y="139.3" width="9.48" height="8.69"/>
        <rect class="cls-10" x="66.38" y="130.61" width="9.48" height="8.69"/>
        <rect class="cls-6" x="66.38" y="121.91" width="9.48" height="8.69"/>
        <rect class="cls-6" x="66.38" y="113.22" width="9.48" height="8.69"/>
        <rect class="cls-6" x="66.38" y="104.52" width="9.48" height="8.69"/>
        <rect class="cls-6" x="66.38" y="95.83" width="9.48" height="8.69"/>
        <rect class="cls-10" x="75.86" y="200.17" width="9.48" height="8.69"/>
        <rect class="cls-10" x="75.86" y="191.47" width="9.48" height="8.69"/>
        <rect class="cls-10" x="75.86" y="182.78" width="9.48" height="8.69"/>
        <rect class="cls-10" x="75.86" y="174.08" width="9.48" height="8.69"/>
        <rect class="cls-10" x="75.86" y="165.39" width="9.48" height="8.69"/>
        <rect class="cls-10" x="75.86" y="156.69" width="9.48" height="8.69"/>
        <rect class="cls-10" x="75.86" y="148" width="9.48" height="8.69"/>
        <rect class="cls-10" x="75.86" y="139.3" width="9.48" height="8.69"/>
        <rect class="cls-6" x="75.86" y="130.61" width="9.48" height="8.69"/>
        <rect class="cls-6" x="75.86" y="121.91" width="9.48" height="8.69"/>
        <rect class="cls-6" x="75.86" y="113.22" width="9.48" height="8.69"/>
        <rect class="cls-6" x="75.86" y="104.52" width="9.48" height="8.69"/>
        <rect class="cls-6" x="75.86" y="95.83" width="9.48" height="8.69"/>
        <rect class="cls-10" x="85.34" y="200.17" width="9.48" height="8.69"/>
        <rect class="cls-10" x="85.34" y="191.47" width="9.48" height="8.69"/>
        <rect class="cls-10" x="85.34" y="182.78" width="9.48" height="8.69"/>
        <rect class="cls-10" x="85.34" y="174.08" width="9.48" height="8.69"/>
        <rect class="cls-10" x="85.34" y="165.39" width="9.48" height="8.69"/>
        <rect class="cls-10" x="85.34" y="156.69" width="9.48" height="8.69"/>
        <rect class="cls-10" x="85.34" y="148" width="9.48" height="8.69"/>
        <rect class="cls-10" x="85.34" y="139.3" width="9.48" height="8.69"/>
        <rect class="cls-6" x="85.34" y="130.61" width="9.48" height="8.69"/>
        <rect class="cls-6" x="85.34" y="121.91" width="9.48" height="8.69"/>
        <rect class="cls-6" x="85.34" y="113.22" width="9.48" height="8.69"/>
        <rect class="cls-6" x="85.34" y="104.52" width="9.48" height="8.69"/>
        <rect class="cls-6" x="85.34" y="95.83" width="9.48" height="8.69"/>
        <rect class="cls-10" x="94.83" y="200.17" width="9.48" height="8.69"/>
        <rect class="cls-10" x="94.83" y="191.47" width="9.48" height="8.69"/>
        <rect class="cls-10" x="94.83" y="182.78" width="9.48" height="8.69"/>
        <rect class="cls-10" x="94.83" y="174.08" width="9.48" height="8.69"/>
        <rect class="cls-10" x="94.83" y="165.39" width="9.48" height="8.69"/>
        <rect class="cls-10" x="94.83" y="156.69" width="9.48" height="8.69"/>
        <rect class="cls-10" x="94.83" y="148" width="9.48" height="8.69"/>
        <rect class="cls-6" x="94.83" y="139.3" width="9.48" height="8.69"/>
        <rect class="cls-6" x="94.83" y="130.61" width="9.48" height="8.69"/>
        <rect class="cls-6" x="94.83" y="121.91" width="9.48" height="8.69"/>
        <rect class="cls-6" x="94.83" y="113.22" width="9.48" height="8.69"/>
        <rect class="cls-6" x="94.83" y="104.52" width="9.48" height="8.69"/>
        <rect class="cls-6" x="94.83" y="95.83" width="9.48" height="8.69"/>
        <rect class="cls-10" x="104.31" y="200.17" width="9.48" height="8.69"/>
        <rect class="cls-10" x="104.31" y="191.47" width="9.48" height="8.69"/>
        <rect class="cls-10" x="104.31" y="182.78" width="9.48" height="8.69"/>
        <rect class="cls-10" x="104.31" y="174.08" width="9.48" height="8.69"/>
        <rect class="cls-10" x="104.31" y="165.39" width="9.48" height="8.69"/>
        <rect class="cls-10" x="104.31" y="156.69" width="9.48" height="8.69"/>
        <rect class="cls-10" x="104.31" y="148" width="9.48" height="8.69"/>
        <rect class="cls-6" x="104.31" y="139.3" width="9.48" height="8.69"/>
        <rect class="cls-6" x="104.31" y="130.61" width="9.48" height="8.69"/>
        <rect class="cls-6" x="104.31" y="121.91" width="9.48" height="8.69"/>
        <rect class="cls-6" x="104.31" y="113.22" width="9.48" height="8.69"/>
        <rect class="cls-6" x="104.31" y="104.52" width="9.48" height="8.69"/>
        <rect class="cls-6" x="104.31" y="95.83" width="9.48" height="8.69"/>
        <rect class="cls-10" x="113.79" y="200.17" width="9.48" height="8.69"/>
        <rect class="cls-10" x="113.79" y="191.47" width="9.48" height="8.69"/>
        <rect class="cls-10" x="113.79" y="182.78" width="9.48" height="8.69"/>
        <rect class="cls-10" x="113.79" y="174.08" width="9.48" height="8.69"/>
        <rect class="cls-10" x="113.79" y="165.39" width="9.48" height="8.69"/>
        <rect class="cls-10" x="113.79" y="156.69" width="9.48" height="8.69"/>
        <rect class="cls-10" x="113.79" y="148" width="9.48" height="8.69"/>
        <rect class="cls-6" x="113.79" y="139.3" width="9.48" height="8.69"/>
        <rect class="cls-6" x="113.79" y="130.61" width="9.48" height="8.69"/>
        <rect class="cls-6" x="113.79" y="121.91" width="9.48" height="8.69"/>
        <rect class="cls-6" x="113.79" y="113.22" width="9.48" height="8.69"/>
        <rect class="cls-6" x="113.79" y="104.52" width="9.48" height="8.69"/>
        <rect class="cls-6" x="113.79" y="95.83" width="9.48" height="8.69"/>
        <rect class="cls-10" x="123.27" y="200.17" width="9.48" height="8.69"/>
        <rect class="cls-10" x="123.27" y="191.47" width="9.48" height="8.69"/>
        <rect class="cls-10" x="123.27" y="182.78" width="9.48" height="8.69"/>
        <rect class="cls-10" x="123.27" y="174.08" width="9.48" height="8.69"/>
        <rect class="cls-10" x="123.27" y="165.39" width="9.48" height="8.69"/>
        <rect class="cls-10" x="123.27" y="156.69" width="9.48" height="8.69"/>
        <rect class="cls-6" x="123.27" y="148" width="9.48" height="8.69"/>
        <rect class="cls-6" x="123.27" y="139.3" width="9.48" height="8.69"/>
        <rect class="cls-6" x="123.27" y="130.61" width="9.48" height="8.69"/>
        <rect class="cls-6" x="123.27" y="121.91" width="9.48" height="8.69"/>
        <rect class="cls-6" x="123.27" y="113.22" width="9.48" height="8.69"/>
        <rect class="cls-6" x="123.27" y="104.52" width="9.48" height="8.69"/>
        <rect class="cls-6" x="123.27" y="95.83" width="9.48" height="8.69"/>
        <rect class="cls-10" x="132.76" y="200.17" width="9.48" height="8.69"/>
        <rect class="cls-10" x="132.76" y="191.47" width="9.48" height="8.69"/>
        <rect class="cls-10" x="132.76" y="182.78" width="9.48" height="8.69"/>
        <rect class="cls-10" x="132.76" y="174.08" width="9.48" height="8.69"/>
        <rect class="cls-10" x="132.76" y="165.39" width="9.48" height="8.69"/>
        <rect class="cls-10" x="132.76" y="156.69" width="9.48" height="8.69"/>
        <rect class="cls-6" x="132.76" y="148" width="9.48" height="8.69"/>
        <rect class="cls-6" x="132.76" y="139.3" width="9.48" height="8.69"/>
        <rect class="cls-6" x="132.76" y="130.61" width="9.48" height="8.69"/>
        <rect class="cls-6" x="132.76" y="121.91" width="9.48" height="8.69"/>
        <rect class="cls-6" x="132.76" y="113.22" width="9.48" height="8.69"/>
        <rect class="cls-6" x="132.76" y="104.52" width="9.48" height="8.69"/>
        <rect class="cls-6" x="132.76" y="95.83" width="9.48" height="8.69"/>
        <rect class="cls-10" x="142.24" y="200.17" width="9.48" height="8.69"/>
        <rect class="cls-10" x="142.24" y="191.47" width="9.48" height="8.69"/>
        <rect class="cls-10" x="142.24" y="182.78" width="9.48" height="8.69"/>
        <rect class="cls-10" x="142.24" y="174.08" width="9.48" height="8.69"/>
        <rect class="cls-10" x="142.24" y="165.39" width="9.48" height="8.69"/>
        <rect class="cls-10" x="142.24" y="156.69" width="9.48" height="8.69"/>
        <rect class="cls-6" x="142.24" y="148" width="9.48" height="8.69"/>
        <rect class="cls-6" x="142.24" y="139.3" width="9.48" height="8.69"/>
        <rect class="cls-6" x="142.24" y="130.61" width="9.48" height="8.69"/>
        <rect class="cls-6" x="142.24" y="121.91" width="9.48" height="8.69"/>
        <rect class="cls-6" x="142.24" y="113.22" width="9.48" height="8.69"/>
        <rect class="cls-6" x="142.24" y="104.52" width="9.48" height="8.69"/>
        <rect class="cls-6" x="142.24" y="95.83" width="9.48" height="8.69"/>
        <rect class="cls-10" x="151.72" y="200.17" width="9.48" height="8.69"/>
        <rect class="cls-10" x="151.72" y="191.47" width="9.48" height="8.69"/>
        <rect class="cls-10" x="151.72" y="182.78" width="9.48" height="8.69"/>
        <rect class="cls-10" x="151.72" y="174.08" width="9.48" height="8.69"/>
        <rect class="cls-10" x="151.72" y="165.39" width="9.48" height="8.69"/>
        <rect class="cls-10" x="151.72" y="156.69" width="9.48" height="8.69"/>
        <rect class="cls-6" x="151.72" y="148" width="9.48" height="8.69"/>
        <rect class="cls-6" x="151.72" y="139.3" width="9.48" height="8.69"/>
        <rect class="cls-6" x="151.72" y="130.61" width="9.48" height="8.69"/>
        <rect class="cls-6" x="151.72" y="121.91" width="9.48" height="8.69"/>
        <rect class="cls-6" x="151.72" y="113.22" width="9.48" height="8.69"/>
        <rect class="cls-6" x="151.72" y="104.52" width="9.48" height="8.69"/>
        <rect class="cls-6" x="151.72" y="95.83" width="9.48" height="8.69"/>
        <rect class="cls-10" x="161.2" y="200.17" width="9.48" height="8.69"/>
        <rect class="cls-10" x="161.2" y="191.47" width="9.48" height="8.69"/>
        <rect class="cls-10" x="161.2" y="182.78" width="9.48" height="8.69"/>
        <rect class="cls-10" x="161.2" y="174.08" width="9.48" height="8.69"/>
        <rect class="cls-10" x="161.2" y="165.39" width="9.48" height="8.69"/>
        <rect class="cls-10" x="161.2" y="156.69" width="9.48" height="8.69"/>
        <rect class="cls-6" x="161.2" y="148" width="9.48" height="8.69"/>
        <rect class="cls-6" x="161.2" y="139.3" width="9.48" height="8.69"/>
        <rect class="cls-6" x="161.2" y="130.61" width="9.48" height="8.69"/>
        <rect class="cls-6" x="161.2" y="121.91" width="9.48" height="8.69"/>
        <rect class="cls-6" x="161.2" y="113.22" width="9.48" height="8.69"/>
        <rect class="cls-6" x="161.2" y="104.52" width="9.48" height="8.69"/>
        <rect class="cls-6" x="161.2" y="95.83" width="9.48" height="8.69"/>
        <rect class="cls-10" x="170.69" y="200.17" width="9.48" height="8.69"/>
        <rect class="cls-10" x="170.69" y="191.47" width="9.48" height="8.69"/>
        <rect class="cls-10" x="170.69" y="182.78" width="9.48" height="8.69"/>
        <rect class="cls-10" x="170.69" y="174.08" width="9.48" height="8.69"/>
        <rect class="cls-10" x="170.69" y="165.39" width="9.48" height="8.69"/>
        <rect class="cls-10" x="170.69" y="156.69" width="9.48" height="8.69"/>
        <rect class="cls-10" x="170.69" y="148" width="9.48" height="8.69"/>
        <rect class="cls-6" x="170.69" y="139.3" width="9.48" height="8.69"/>
        <rect class="cls-6" x="170.69" y="130.61" width="9.48" height="8.69"/>
        <rect class="cls-6" x="170.69" y="121.91" width="9.48" height="8.69"/>
        <rect class="cls-6" x="170.69" y="113.22" width="9.48" height="8.69"/>
        <rect class="cls-6" x="170.69" y="104.52" width="9.48" height="8.69"/>
        <rect class="cls-6" x="170.69" y="95.83" width="9.48" height="8.69"/>
        <rect class="cls-10" x="180.17" y="200.17" width="9.48" height="8.69"/>
        <rect class="cls-10" x="180.17" y="191.47" width="9.48" height="8.69"/>
        <rect class="cls-10" x="180.17" y="182.78" width="9.48" height="8.69"/>
        <rect class="cls-10" x="180.17" y="174.08" width="9.48" height="8.69"/>
        <rect class="cls-10" x="180.17" y="165.39" width="9.48" height="8.69"/>
        <rect class="cls-10" x="180.17" y="156.69" width="9.48" height="8.69"/>
        <rect class="cls-10" x="180.17" y="148" width="9.48" height="8.69"/>
        <rect class="cls-6" x="180.17" y="139.3" width="9.48" height="8.69"/>
        <rect class="cls-6" x="180.17" y="130.61" width="9.48" height="8.69"/>
        <rect class="cls-6" x="180.17" y="121.91" width="9.48" height="8.69"/>
        <rect class="cls-6" x="180.17" y="113.22" width="9.48" height="8.69"/>
        <rect class="cls-6" x="180.17" y="104.52" width="9.48" height="8.69"/>
        <rect class="cls-6" x="180.17" y="95.83" width="9.48" height="8.69"/>
        <rect class="cls-10" x="189.65" y="200.17" width="9.48" height="8.69"/>
        <rect class="cls-10" x="189.65" y="191.47" width="9.48" height="8.69"/>
        <rect class="cls-10" x="189.65" y="182.78" width="9.48" height="8.69"/>
        <rect class="cls-10" x="189.65" y="174.08" width="9.48" height="8.69"/>
        <rect class="cls-10" x="189.65" y="165.39" width="9.48" height="8.69"/>
        <rect class="cls-10" x="189.65" y="156.69" width="9.48" height="8.69"/>
        <rect class="cls-10" x="189.65" y="148" width="9.48" height="8.69"/>
        <rect class="cls-6" x="189.65" y="139.3" width="9.48" height="8.69"/>
        <rect class="cls-6" x="189.65" y="130.61" width="9.48" height="8.69"/>
        <rect class="cls-6" x="189.65" y="121.91" width="9.48" height="8.69"/>
        <rect class="cls-6" x="189.65" y="113.22" width="9.48" height="8.69"/>
        <rect class="cls-6" x="189.65" y="104.52" width="9.48" height="8.69"/>
        <rect class="cls-6" x="189.65" y="95.83" width="9.48" height="8.69"/>
        <rect class="cls-10" x="199.13" y="200.17" width="9.48" height="8.69"/>
        <rect class="cls-10" x="199.13" y="191.47" width="9.48" height="8.69"/>
        <rect class="cls-10" x="199.13" y="182.78" width="9.48" height="8.69"/>
        <rect class="cls-10" x="199.13" y="174.08" width="9.48" height="8.69"/>
        <rect class="cls-10" x="199.13" y="165.39" width="9.48" height="8.69"/>
        <rect class="cls-10" x="199.13" y="156.69" width="9.48" height="8.69"/>
        <rect class="cls-10" x="199.13" y="148" width="9.48" height="8.69"/>
        <rect class="cls-10" x="199.13" y="139.3" width="9.48" height="8.69"/>
        <rect class="cls-6" x="199.13" y="130.61" width="9.48" height="8.69"/>
        <rect class="cls-6" x="199.13" y="121.91" width="9.48" height="8.69"/>
        <rect class="cls-6" x="199.13" y="113.22" width="9.48" height="8.69"/>
        <rect class="cls-6" x="199.13" y="104.52" width="9.48" height="8.69"/>
        <rect class="cls-6" x="199.13" y="95.83" width="9.48" height="8.69"/>
        <rect class="cls-10" x="208.62" y="200.17" width="9.48" height="8.69"/>
        <rect class="cls-10" x="208.62" y="191.47" width="9.48" height="8.69"/>
        <rect class="cls-10" x="208.62" y="182.78" width="9.48" height="8.69"/>
        <rect class="cls-10" x="208.62" y="174.08" width="9.48" height="8.69"/>
        <rect class="cls-10" x="208.62" y="165.39" width="9.48" height="8.69"/>
        <rect class="cls-10" x="208.62" y="156.69" width="9.48" height="8.69"/>
        <rect class="cls-10" x="208.62" y="148" width="9.48" height="8.69"/>
        <rect class="cls-10" x="208.62" y="139.3" width="9.48" height="8.69"/>
        <rect class="cls-6" x="208.62" y="130.61" width="9.48" height="8.69"/>
        <rect class="cls-6" x="208.62" y="121.91" width="9.48" height="8.69"/>
        <rect class="cls-6" x="208.62" y="113.22" width="9.48" height="8.69"/>
        <rect class="cls-6" x="208.62" y="104.52" width="9.48" height="8.69"/>
        <rect class="cls-6" x="208.62" y="95.83" width="9.48" height="8.69"/>
        <rect class="cls-10" x="218.1" y="200.17" width="9.48" height="8.69"/>
        <rect class="cls-10" x="218.1" y="191.47" width="9.48" height="8.69"/>
        <rect class="cls-10" x="218.1" y="182.78" width="9.48" height="8.69"/>
        <rect class="cls-10" x="218.1" y="174.08" width="9.48" height="8.69"/>
        <rect class="cls-10" x="218.1" y="165.39" width="9.48" height="8.69"/>
        <rect class="cls-10" x="218.1" y="156.69" width="9.48" height="8.69"/>
        <rect class="cls-10" x="218.1" y="148" width="9.48" height="8.69"/>
        <rect class="cls-10" x="218.1" y="139.3" width="9.48" height="8.69"/>
        <rect class="cls-10" x="218.1" y="130.61" width="9.48" height="8.69"/>
        <rect class="cls-6" x="218.1" y="121.91" width="9.48" height="8.69"/>
        <rect class="cls-6" x="218.1" y="113.22" width="9.48" height="8.69"/>
        <rect class="cls-6" x="218.1" y="104.52" width="9.48" height="8.69"/>
        <rect class="cls-6" x="218.1" y="95.83" width="9.48" height="8.69"/>
        <rect class="cls-10" x="227.58" y="200.17" width="9.48" height="8.69"/>
        <rect class="cls-10" x="227.58" y="191.47" width="9.48" height="8.69"/>
        <rect class="cls-10" x="227.58" y="182.78" width="9.48" height="8.69"/>
        <rect class="cls-10" x="227.58" y="174.08" width="9.48" height="8.69"/>
        <rect class="cls-10" x="227.58" y="165.39" width="9.48" height="8.69"/>
        <rect class="cls-10" x="227.58" y="156.69" width="9.48" height="8.69"/>
        <rect class="cls-10" x="227.58" y="148" width="9.48" height="8.69"/>
        <rect class="cls-10" x="227.58" y="139.3" width="9.48" height="8.69"/>
        <rect class="cls-10" x="227.58" y="130.61" width="9.48" height="8.69"/>
        <rect class="cls-6" x="227.58" y="121.91" width="9.48" height="8.69"/>
        <rect class="cls-6" x="227.58" y="113.22" width="9.48" height="8.69"/>
        <rect class="cls-6" x="227.58" y="104.52" width="9.48" height="8.69"/>
        <rect class="cls-6" x="227.58" y="95.83" width="9.48" height="8.69"/>
        <rect class="cls-10" x="237.06" y="200.17" width="9.48" height="8.69"/>
        <rect class="cls-10" x="237.06" y="191.47" width="9.48" height="8.69"/>
        <rect class="cls-10" x="237.06" y="182.78" width="9.48" height="8.69"/>
        <rect class="cls-10" x="237.06" y="174.08" width="9.48" height="8.69"/>
        <rect class="cls-10" x="237.06" y="165.39" width="9.48" height="8.69"/>
        <rect class="cls-10" x="237.06" y="156.69" width="9.48" height="8.69"/>
        <rect class="cls-10" x="237.06" y="148" width="9.48" height="8.69"/>
        <rect class="cls-10" x="237.06" y="139.3" width="9.48" height="8.69"/>
        <rect class="cls-10" x="237.06" y="130.61" width="9.48" height="8.69"/>
        <rect class="cls-10" x="237.06" y="121.91" width="9.48" height="8.69"/>
        <rect class="cls-6" x="237.06" y="113.22" width="9.48" height="8.69"/>
        <rect class="cls-6" x="237.06" y="104.52" width="9.48" height="8.69"/>
        <rect class="cls-6" x="237.06" y="95.83" width="9.48" height="8.69"/>
        <rect class="cls-10" x="246.55" y="200.17" width="9.48" height="8.69"/>
        <rect class="cls-10" x="246.55" y="191.47" width="9.48" height="8.69"/>
        <rect class="cls-10" x="246.55" y="182.78" width="9.48" height="8.69"/>
        <rect class="cls-10" x="246.55" y="174.08" width="9.48" height="8.69"/>
        <rect class="cls-10" x="246.55" y="165.39" width="9.48" height="8.69"/>
        <rect class="cls-10" x="246.55" y="156.69" width="9.48" height="8.69"/>
        <rect class="cls-10" x="246.55" y="148" width="9.48" height="8.69"/>
        <rect class="cls-10" x="246.55" y="139.3" width="9.48" height="8.69"/>
        <rect class="cls-10" x="246.55" y="130.61" width="9.48" height="8.69"/>
        <rect class="cls-10" x="246.55" y="121.91" width="9.48" height="8.69"/>
        <rect class="cls-10" x="246.55" y="113.22" width="9.48" height="8.69"/>
        <rect class="cls-6" x="246.55" y="104.52" width="9.48" height="8.69"/>
        <rect class="cls-6" x="246.55" y="95.83" width="9.48" height="8.69"/>
        <rect class="cls-10" x="256.03" y="200.17" width="9.48" height="8.69"/>
        <rect class="cls-10" x="256.03" y="191.47" width="9.48" height="8.69"/>
        <rect class="cls-10" x="256.03" y="182.78" width="9.48" height="8.69"/>
        <rect class="cls-10" x="256.03" y="174.08" width="9.48" height="8.69"/>
        <rect class="cls-10" x="256.03" y="165.39" width="9.48" height="8.69"/>
        <rect class="cls-10" x="256.03" y="156.69" width="9.48" height="8.69"/>
        <rect class="cls-10" x="256.03" y="148" width="9.48" height="8.69"/>
        <rect class="cls-10" x="256.03" y="139.3" width="9.48" height="8.69"/>
        <rect class="cls-10" x="256.03" y="130.61" width="9.48" height="8.69"/>
        <rect class="cls-10" x="256.03" y="121.91" width="9.48" height="8.69"/>
        <rect class="cls-10" x="256.03" y="113.22" width="9.48" height="8.69"/>
        <rect class="cls-6" x="256.03" y="104.52" width="9.48" height="8.69"/>
        <rect class="cls-14" x="265.51" y="200.17" width="9.48" height="8.69"/>
        <rect class="cls-8" x="265.51" y="191.47" width="9.48" height="8.69"/>
        <rect class="cls-8" x="265.51" y="182.78" width="9.48" height="8.69"/>
        <rect class="cls-8" x="265.51" y="174.08" width="9.48" height="8.69"/>
        <rect class="cls-8" x="265.51" y="165.39" width="9.48" height="8.69"/>
        <rect class="cls-8" x="265.51" y="156.69" width="9.48" height="8.69"/>
        <rect class="cls-8" x="265.51" y="148" width="9.48" height="8.69"/>
        <rect class="cls-8" x="265.51" y="139.3" width="9.48" height="8.69"/>
        <rect class="cls-8" x="265.51" y="130.61" width="9.48" height="8.69"/>
        <rect class="cls-3" x="274.99" y="208.86" width="9.48" height="8.69"/>
        <rect class="cls-14" x="274.99" y="200.17" width="9.48" height="8.69"/>
        <rect class="cls-8" x="274.99" y="191.47" width="9.48" height="8.69"/>
        <rect class="cls-8" x="274.99" y="182.78" width="9.48" height="8.69"/>
        <rect class="cls-8" x="274.99" y="174.08" width="9.48" height="8.69"/>
        <rect class="cls-8" x="274.99" y="165.39" width="9.48" height="8.69"/>
        <rect class="cls-8" x="274.99" y="156.69" width="9.48" height="8.69"/>
        <rect class="cls-8" x="274.99" y="148" width="9.48" height="8.69"/>
        <rect class="cls-8" x="274.99" y="139.3" width="9.48" height="8.69"/>
        <rect class="cls-8" x="274.99" y="130.61" width="9.48" height="8.69"/>
        <rect class="cls-14" x="284.48" y="200.17" width="9.48" height="8.69"/>
        <rect class="cls-18" x="284.48" y="200.16" width="9.48" height=".01"/>
        <rect class="cls-14" x="284.48" y="191.47" width="9.48" height="8.69"/>
        <rect class="cls-14" x="284.48" y="182.78" width="9.48" height="8.69"/>
        <rect class="cls-14" x="284.48" y="174.08" width="9.48" height="8.69"/>
        <rect class="cls-14" x="284.48" y="165.39" width="9.48" height="8.69"/>
        <rect class="cls-14" x="284.48" y="156.69" width="9.48" height="8.69"/>
        <rect class="cls-14" x="284.48" y="148" width="9.48" height="8.69"/>
        <rect class="cls-14" x="284.48" y="139.3" width="9.48" height="8.69"/>
        <rect class="cls-14" x="284.48" y="130.61" width="9.48" height="8.69"/>
      </g>
    </g>
  </g>
</svg>